<svg width="130" height="39" viewBox="0 0 130 39" fill="none" xmlns="http://www.w3.org/2000/svg">
<path d="M68.5146 9.69991C68.5146 11.0911 67.3368 12.2118 65.8748 12.2118C64.4128 12.2118 63.2351 11.0911 63.2351 9.69991C63.2351 8.30869 64.3722 7.18798 65.8748 7.18798C67.3774 7.22663 68.5146 8.34733 68.5146 9.69991ZM57.6307 14.7624V15.3807C57.6307 15.3807 56.3718 13.8349 53.6915 13.8349C49.2648 13.8349 45.8129 17.0425 45.8129 21.4867C45.8129 25.8922 49.2242 29.1384 53.6915 29.1384C56.4124 29.1384 57.6307 27.5539 57.6307 27.5539V28.2109C57.6307 28.5201 57.8744 28.7519 58.1993 28.7519H61.4888V14.2214H58.1993C57.8744 14.2214 57.6307 14.4919 57.6307 14.7624ZM57.6307 24.0759C57.0216 24.9261 55.8032 25.6603 54.3412 25.6603C51.7421 25.6603 49.7522 24.1145 49.7522 21.4867C49.7522 18.8588 51.7421 17.313 54.3412 17.313C55.7626 17.313 57.0622 18.0859 57.6307 18.8974V24.0759ZM63.9255 14.2214H67.8242V28.7519H63.9255V14.2214ZM122.162 13.8349C119.482 13.8349 118.223 15.3807 118.223 15.3807V7.22663H114.324V28.7519H117.614C117.938 28.7519 118.182 28.4814 118.182 28.2109V27.5539C118.182 27.5539 119.441 29.1384 122.121 29.1384C126.548 29.1384 130 25.8922 130 21.4867C130 17.0811 126.548 13.8349 122.162 13.8349ZM121.512 25.6217C120.01 25.6217 118.832 24.8874 118.223 24.0372V18.8588C118.832 18.0859 120.131 17.2743 121.512 17.2743C124.111 17.2743 126.101 18.8201 126.101 21.448C126.101 24.0759 124.111 25.6217 121.512 25.6217ZM112.293 20.1341V28.7906H108.395V20.5592C108.395 18.1632 107.583 17.1971 105.39 17.1971C104.212 17.1971 102.994 17.7767 102.222 18.6269V28.7519H98.3232V14.2214H101.41C101.735 14.2214 101.978 14.4919 101.978 14.7624V15.3807C103.115 14.26 104.618 13.8349 106.121 13.8349C107.826 13.8349 109.248 14.2987 110.385 15.2262C111.766 16.3082 112.293 17.6994 112.293 20.1341ZM88.8608 13.8349C86.1805 13.8349 84.9215 15.3807 84.9215 15.3807V7.22663H81.0228V28.7519H84.3123C84.6372 28.7519 84.8809 28.4814 84.8809 28.2109V27.5539C84.8809 27.5539 86.1398 29.1384 88.8202 29.1384C93.2468 29.1384 96.6988 25.8922 96.6988 21.4867C96.7394 17.0811 93.2874 13.8349 88.8608 13.8349ZM88.211 25.6217C86.7084 25.6217 85.5307 24.8874 84.9215 24.0372V18.8588C85.5307 18.0859 86.8302 17.2743 88.211 17.2743C90.8101 17.2743 92.8001 18.8201 92.8001 21.448C92.8001 24.0759 90.8101 25.6217 88.211 25.6217ZM77.6521 13.8349C78.8298 13.8349 79.439 14.0282 79.439 14.0282V17.4676C79.439 17.4676 76.1901 16.4241 74.1595 18.6269V28.7906H70.2608V14.2214H73.5504C73.8753 14.2214 74.1189 14.4919 74.1189 14.7624V15.3807C74.8499 14.5692 76.4338 13.8349 77.6521 13.8349ZM37.1627 27.438C36.9596 26.9742 36.7566 26.4719 36.5535 26.0468C36.2286 25.3512 35.9037 24.6942 35.6194 24.0759L35.5788 24.0372C32.7767 18.2405 29.7714 12.3664 26.6038 6.56966L26.4819 6.33779C26.157 5.75811 25.8321 5.13979 25.5073 4.52147C25.1011 3.82586 24.695 3.0916 24.0452 2.39599C22.7457 0.850191 20.8776 0 18.8876 0C16.8571 0 15.0295 0.850191 13.6894 2.3187C13.0802 3.01431 12.6335 3.74857 12.2274 4.44418C11.9025 5.0625 11.5776 5.68082 11.2527 6.2605L11.1309 6.49237C8.0038 12.2891 4.95796 18.1632 2.15578 23.9599L2.11517 24.0372C1.83089 24.6555 1.506 25.3125 1.18111 26.0081C0.978054 26.4332 0.774998 26.897 0.571942 27.3993C0.0439956 28.8292 -0.118449 30.1818 0.0846068 31.573C0.531331 34.4714 2.56189 36.906 5.36407 37.9881C6.41996 38.4132 7.51647 38.6064 8.65358 38.6064C8.97847 38.6064 9.38458 38.5678 9.70947 38.5291C11.0496 38.3745 12.4304 37.9494 13.7706 37.2152C15.4357 36.3264 17.0195 35.0511 18.8064 33.1961C20.5933 35.0511 22.2177 36.3264 23.8422 37.2152C25.1824 37.9494 26.5631 38.3745 27.9033 38.5291C28.2282 38.5678 28.6343 38.6064 28.9592 38.6064C30.0963 38.6064 31.2334 38.4132 32.2487 37.9881C35.0915 36.906 37.0815 34.4327 37.5282 31.573C37.8531 30.2204 37.6906 28.8679 37.1627 27.438ZM18.847 29.4475C16.654 26.8197 15.2326 24.3464 14.7453 22.2596C14.5422 21.3707 14.5016 20.5978 14.6234 19.9022C14.7047 19.2839 14.9483 18.7429 15.2732 18.2791C16.0448 17.2357 17.3444 16.5787 18.847 16.5787C20.3496 16.5787 21.6898 17.1971 22.4208 18.2791C22.7457 18.7429 22.9894 19.2839 23.0706 19.9022C23.1924 20.5978 23.1518 21.4094 22.9487 22.2596C22.4614 24.3077 21.04 26.781 18.847 29.4475ZM35.0509 31.2639C34.7666 33.2734 33.3452 35.0124 31.3553 35.7853C30.3806 36.1718 29.3247 36.2877 28.2688 36.1718C27.2535 36.0558 26.2383 35.7467 25.1824 35.167C23.7204 34.3941 22.2584 33.1961 20.5527 31.4184C23.233 28.2882 24.8575 25.4284 25.4666 22.8779C25.7509 21.6799 25.7915 20.5978 25.6697 19.593C25.5073 18.6269 25.1418 17.7381 24.5732 16.9652C23.3142 15.2262 21.2025 14.2214 18.847 14.2214C16.4916 14.2214 14.3798 15.2648 13.1208 16.9652C12.5523 17.7381 12.1868 18.6269 12.0243 19.593C11.8619 20.5978 11.9025 21.7185 12.2274 22.8779C12.8365 25.4284 14.5016 28.3268 17.1413 31.4571C15.4763 33.2347 13.9737 34.4327 12.5116 35.2056C11.4558 35.7853 10.4405 36.0945 9.42519 36.2104C8.32869 36.3264 7.2728 36.1718 6.33874 35.824C4.34879 35.0511 2.92739 33.312 2.64312 31.3025C2.52128 30.3364 2.6025 29.3702 3.00862 28.2882C3.13045 27.9017 3.33351 27.5153 3.53656 27.0515C3.82084 26.4332 4.14573 25.7763 4.47062 25.1193L4.51123 25.042C7.31341 19.2839 10.3186 13.4098 13.4457 7.69037L13.5675 7.4585C13.8924 6.87882 14.2173 6.2605 14.5422 5.68082C14.8671 5.0625 15.2326 4.48283 15.6793 3.98044C16.5322 3.05296 17.6693 2.55057 18.9282 2.55057C20.1872 2.55057 21.3243 3.05296 22.1771 3.98044C22.6239 4.48283 22.9894 5.0625 23.3142 5.68082C23.6391 6.2605 23.964 6.87882 24.2889 7.4585L24.4107 7.69037C27.4972 13.4485 30.5024 19.3225 33.3046 25.0806V25.1193C33.6295 25.7376 33.9138 26.4332 34.2387 27.0515C34.4417 27.5153 34.6448 27.9017 34.7666 28.2882C35.0915 29.293 35.2133 30.2591 35.0509 31.2639Z" fill="#424147"/>
</svg>
