<svg width="20" height="18" viewBox="0 0 20 18" fill="none" xmlns="http://www.w3.org/2000/svg">
<g clip-path="url(#clip0_31401_610)">
<path d="M13.4104 0.52124C12.4028 0.584905 11.225 1.17407 10.5387 1.94128C9.91263 2.63727 9.39759 3.67101 9.59841 4.67561C10.6994 4.70691 11.8369 4.10371 12.4961 3.32355C13.1127 2.59735 13.5793 1.57008 13.4104 0.52124Z" fill="#B9B9B9"/>
<path d="M17.3926 6.31369C16.4251 5.2055 15.0655 4.56238 13.7814 4.56238C12.0863 4.56238 11.3693 5.30369 10.1915 5.30369C8.97716 5.30369 8.05458 4.56454 6.58861 4.56454C5.14864 4.56454 3.61533 5.36843 2.64314 6.74315C1.2764 8.67899 1.51029 12.3186 3.72519 15.4188C4.51783 16.5281 5.57626 17.7754 6.96072 17.7862C8.19279 17.797 8.54009 17.0643 10.2092 17.0568C11.8784 17.0482 12.195 17.7959 13.4247 17.7841C14.8103 17.7744 15.9266 16.3921 16.7193 15.2828C17.2875 14.4876 17.4989 14.0872 17.9395 13.1894C14.7347 12.0748 14.2209 7.91177 17.3926 6.31369Z" fill="#B9B9B9"/>
</g>
<defs>
<clipPath id="clip0_31401_610">
<rect width="18.9006" height="17.265" fill="white" transform="translate(0.417114 0.52124)"/>
</clipPath>
</defs>
</svg>
