<svg width="119" height="44" viewBox="0 0 119 44" fill="none" xmlns="http://www.w3.org/2000/svg">
<path d="M8.17119 43.9978C7.86525 43.9978 7.56674 43.9933 7.26321 43.9855C6.63445 43.9762 6.00716 43.9135 5.38648 43.798C4.80773 43.6838 4.24708 43.4713 3.72303 43.1677C3.20376 42.8666 2.73014 42.4717 2.32033 41.9983C1.90455 41.5305 1.55839 40.9879 1.29557 40.392C1.02988 39.7922 0.846003 39.1493 0.750351 38.4857C0.647089 37.7727 0.591236 37.0517 0.583272 36.329C0.576846 36.0864 0.568512 35.2788 0.568512 35.2788V8.70683C0.568512 8.70683 0.577348 7.91153 0.583272 7.6778C0.590922 6.95624 0.646474 6.2364 0.749447 5.5245C0.845288 4.85909 1.02932 4.21437 1.29516 3.61264C1.55698 3.01715 1.90117 2.47411 2.3144 2.00457C2.7272 1.53057 3.20235 1.1337 3.72252 0.828422C4.24539 0.525785 4.80498 0.314886 5.38257 0.202792C6.00529 0.0861784 6.63477 0.0231591 7.26572 0.0142633L8.1717 0H111.36L112.276 0.0146084C112.902 0.0231178 113.525 0.0856396 114.142 0.201642C114.726 0.315174 115.291 0.527579 115.82 0.831873C116.862 1.44708 117.71 2.42039 118.245 3.6154C118.507 4.213 118.688 4.8525 118.782 5.51219C118.887 6.22992 118.945 6.9554 118.957 7.68286C118.96 8.00862 118.96 8.35853 118.96 8.70683C118.968 9.13818 118.968 9.54871 118.968 9.96269V34.0362C118.968 34.4541 118.968 34.8618 118.96 35.2729C118.96 35.647 118.96 35.9897 118.956 36.3423C118.944 37.0569 118.887 37.7694 118.784 38.4743C118.69 39.1427 118.508 39.7906 118.242 40.3953C117.977 40.9847 117.633 41.5226 117.222 41.9892C116.812 42.4652 116.338 42.8623 115.817 43.1654C115.29 43.4713 114.725 43.6845 114.142 43.7978C113.522 43.9139 112.894 43.9766 112.266 43.9854C111.965 43.9934 111.665 43.9975 111.364 43.9977L110.276 44L8.17119 43.9978Z" fill="black"/>
<path d="M24.4098 21.3646C24.4206 20.565 24.6434 19.7811 25.0574 19.0857C25.4714 18.3903 26.0632 17.8061 26.7778 17.3873C26.3238 16.7693 25.725 16.2607 25.0288 15.9019C24.3326 15.5431 23.5583 15.344 22.7673 15.3204C21.0798 15.1515 19.444 16.2829 18.584 16.2829C17.7076 16.2829 16.3837 15.3371 14.9581 15.3651C14.0359 15.3935 13.1372 15.6491 12.3495 16.107C11.5618 16.565 10.912 17.2096 10.4633 17.9781C8.51995 21.1857 9.96956 25.8996 11.8313 28.4923C12.7627 29.762 13.8511 31.1801 15.2755 31.1298C16.6693 31.0747 17.1898 30.2825 18.8723 30.2825C20.5392 30.2825 21.0275 31.1298 22.4808 31.0978C23.9764 31.0747 24.9187 29.8226 25.8174 28.541C26.4866 27.6364 27.0016 26.6366 27.3432 25.5786C26.4743 25.2283 25.7328 24.6419 25.2111 23.8925C24.6895 23.1431 24.4108 22.2639 24.4098 21.3646ZM21.6649 13.6152C22.4804 12.682 22.8821 11.4825 22.7848 10.2715C21.539 10.3962 20.3882 10.9638 19.5617 11.8612C19.1576 12.2996 18.8481 12.8097 18.6509 13.3622C18.4537 13.9147 18.3726 14.4988 18.4124 15.0812C19.0356 15.0873 19.6521 14.9586 20.2154 14.7046C20.7788 14.4507 21.2744 14.0782 21.6649 13.6152ZM42.0284 27.9158H37.272L36.1298 31.1309H34.1151L38.6203 19.2355H40.7135L45.2187 31.1309H43.1697L42.0284 27.9158ZM37.7646 26.4321H41.5348L39.6763 21.2141H39.6242L37.7646 26.4321ZM54.9483 26.7951C54.9483 29.4901 53.4351 31.2217 51.1517 31.2217C50.5732 31.2505 49.9979 31.1235 49.4916 30.8551C48.9854 30.5868 48.5686 30.188 48.2891 29.7043H48.2459V34H46.3785V22.4582H48.1861V23.9008H48.2205C48.5128 23.4194 48.9366 23.0227 49.4467 22.7527C49.9568 22.4827 50.5341 22.3496 51.1173 22.3675C53.4263 22.3675 54.9483 24.1076 54.9483 26.7951ZM53.0288 26.7951C53.0288 25.0392 52.077 23.8849 50.6247 23.8849C49.1978 23.8849 48.2382 25.0635 48.2382 26.795C48.2382 28.5425 49.1978 29.7128 50.6247 29.7128C52.077 29.7128 53.0288 28.567 53.0288 26.7951ZM64.9616 26.7951C64.9616 29.4901 63.4484 31.2217 61.1649 31.2217C60.5864 31.2505 60.0112 31.1235 59.5049 30.8551C58.9987 30.5868 58.582 30.1879 58.3025 29.7043H58.2592V34H56.3918V22.4582H58.1994V23.9008H58.2337C58.5261 23.4194 58.9499 23.0227 59.46 22.7527C59.9701 22.4827 60.5474 22.3496 61.1305 22.3675C63.4396 22.3675 64.9616 24.1076 64.9616 26.7951ZM63.0422 26.7951C63.0422 25.0392 62.0903 23.8849 60.638 23.8849C59.211 23.8849 58.2514 25.0635 58.2514 26.795C58.2514 28.5425 59.211 29.7128 60.638 29.7128C62.0903 29.7128 63.0422 28.567 63.0422 26.7951ZM71.5796 27.8166C71.7179 28.9962 72.9201 29.7708 74.5627 29.7708C76.1367 29.7708 77.2692 28.9962 77.2692 27.9325C77.2692 27.0092 76.5862 26.4564 74.9691 26.0775L73.3517 25.7061C71.0605 25.1785 69.9967 24.157 69.9967 22.4993C69.9967 20.4469 71.873 19.0372 74.5372 19.0372C77.1739 19.0372 78.9816 20.4469 79.0424 22.4993H77.1572C77.0444 21.3123 76.015 20.5956 74.5107 20.5956C73.0064 20.5956 71.977 21.3207 71.977 22.3758C71.977 23.2169 72.6345 23.7118 74.2428 24.0905L75.6176 24.4124C78.1778 24.9895 79.2416 25.97 79.2416 27.7098C79.2416 29.9354 77.382 31.3292 74.4243 31.3292C71.6569 31.3292 69.7886 29.968 69.6679 27.8165L71.5796 27.8166ZM83.2718 20.4059V22.4582H85.0019V23.868H83.2718V28.6492C83.2718 29.3919 83.6182 29.738 84.3788 29.738C84.5842 29.7346 84.7892 29.7209 84.9931 29.6968V31.0983C84.6511 31.1591 84.3036 31.1867 83.9558 31.1805C82.1139 31.1805 81.3955 30.521 81.3955 28.839V23.868H80.0728V22.4582H81.3955V20.4059H83.2718ZM86.0039 26.7951C86.0039 24.0663 87.6897 22.3516 90.3187 22.3516C92.9565 22.3516 94.6345 24.0663 94.6345 26.7951C94.6345 29.5313 92.9652 31.2385 90.3186 31.2385C87.673 31.2385 86.0039 29.5313 86.0039 26.7951ZM92.7317 26.7951C92.7317 24.9232 91.8318 23.8184 90.3186 23.8184C88.8055 23.8184 87.9066 24.9316 87.9066 26.7951C87.9066 28.6744 88.8055 29.7708 90.3186 29.7708C91.8318 29.7708 92.7317 28.6744 92.7317 26.7951ZM96.174 22.4582H97.9552V23.9344H97.9984C98.1189 23.4733 98.4022 23.0659 98.8007 22.7806C99.1993 22.4952 99.6887 22.3494 100.187 22.3675C100.402 22.3668 100.617 22.389 100.827 22.4339V24.099C100.555 24.0199 100.271 23.9836 99.9875 23.9915C99.7162 23.981 99.4457 24.0266 99.1947 24.1251C98.9436 24.2237 98.7179 24.3729 98.533 24.5624C98.3482 24.752 98.2085 24.9774 98.1237 25.2233C98.0389 25.4692 98.0108 25.7296 98.0416 25.9868V31.1309H96.174V22.4582ZM109.436 28.5836C109.185 30.1581 107.577 31.2385 105.519 31.2385C102.873 31.2385 101.23 29.5482 101.23 26.8362C101.23 24.1159 102.881 22.3516 105.441 22.3516C107.958 22.3516 109.54 23.9999 109.54 26.6295V27.2394H103.115V27.347C103.085 27.6661 103.127 27.9877 103.238 28.2902C103.349 28.5928 103.526 28.8694 103.757 29.1018C103.988 29.3341 104.269 29.5169 104.58 29.6378C104.892 29.7588 105.226 29.8153 105.562 29.8035C106.004 29.843 106.446 29.7456 106.825 29.5258C107.204 29.306 107.498 28.9755 107.663 28.5836H109.436ZM103.124 25.9952H107.672C107.689 25.7082 107.643 25.4211 107.538 25.1517C107.433 24.8823 107.27 24.6365 107.061 24.4298C106.851 24.2232 106.599 24.06 106.32 23.9506C106.042 23.8412 105.742 23.7879 105.441 23.794C105.136 23.7923 104.835 23.848 104.554 23.9579C104.272 24.0679 104.016 24.2298 103.801 24.4345C103.586 24.6391 103.415 24.8824 103.299 25.1503C103.182 25.4182 103.123 25.7053 103.124 25.9952ZM37.5306 10.2817C37.9221 10.2549 38.315 10.3113 38.6808 10.4468C39.0467 10.5823 39.3765 10.7935 39.6464 11.0652C39.9163 11.3369 40.1196 11.6623 40.2416 12.018C40.3635 12.3736 40.4012 12.7506 40.3518 13.1219C40.3518 14.9478 39.3165 15.9975 37.5306 15.9975H35.3648V10.2816L37.5306 10.2817ZM36.2961 15.1891H37.4266C37.7063 15.2051 37.9863 15.1613 38.2461 15.0611C38.5059 14.9609 38.7389 14.8067 38.9283 14.6098C39.1177 14.4129 39.2587 14.1782 39.3409 13.9228C39.4232 13.6674 39.4447 13.3978 39.4038 13.1335C39.4417 12.8702 39.4181 12.6022 39.3345 12.3487C39.251 12.0951 39.1097 11.8624 38.9208 11.667C38.7318 11.4717 38.4998 11.3186 38.2415 11.2187C37.9832 11.1189 37.7049 11.0747 37.4266 11.0894H36.2961V15.1891ZM41.4038 13.8389C41.3754 13.5554 41.4094 13.2694 41.5037 12.9992C41.5979 12.729 41.7504 12.4806 41.9514 12.2698C42.1523 12.0591 42.3972 11.8907 42.6703 11.7755C42.9435 11.6603 43.2389 11.6008 43.5376 11.6008C43.8363 11.6008 44.1318 11.6603 44.4049 11.7755C44.6781 11.8907 44.923 12.0591 45.1239 12.2698C45.3248 12.4806 45.4773 12.729 45.5716 12.9992C45.6659 13.2694 45.6999 13.5554 45.6715 13.8389C45.7005 14.1227 45.667 14.4091 45.573 14.6798C45.479 14.9505 45.3266 15.1995 45.1256 15.4107C44.9246 15.6219 44.6795 15.7906 44.406 15.9061C44.1326 16.0216 43.8368 16.0813 43.5376 16.0813C43.2385 16.0813 42.9427 16.0216 42.6692 15.9061C42.3957 15.7906 42.1506 15.6219 41.9497 15.4107C41.7487 15.1995 41.5963 14.9505 41.5023 14.6798C41.4083 14.4091 41.3747 14.1227 41.4038 13.8389ZM44.753 13.8389C44.753 12.9038 44.3124 12.3571 43.5391 12.3571C42.7629 12.3571 42.3263 12.9038 42.3263 13.8389C42.3263 14.7814 42.763 15.3239 43.5391 15.3239C44.3124 15.3239 44.753 14.7776 44.753 13.8389ZM51.3445 15.9974H50.418L49.4829 12.8206H49.4122L48.481 15.9974H47.5635L46.3163 11.6839H47.222L48.0326 14.9753H48.0993L49.0296 11.6839H49.8862L50.8165 14.9753H50.8872L51.6938 11.6839H52.5868L51.3445 15.9974ZM53.6358 11.684H54.4954V12.3692H54.5622C54.6754 12.1231 54.8663 11.9168 55.1083 11.779C55.3504 11.6412 55.6315 11.5789 55.9125 11.6007C56.1327 11.5849 56.3537 11.6166 56.5593 11.6933C56.7649 11.77 56.9497 11.8899 57.1002 12.0439C57.2506 12.198 57.3627 12.3824 57.4282 12.5833C57.4937 12.7843 57.511 12.9968 57.4787 13.205V15.9973H56.5856V13.4188C56.5856 12.7257 56.2696 12.3809 55.6092 12.3809C55.4597 12.3743 55.3105 12.3985 55.1718 12.452C55.0331 12.5055 54.9081 12.587 54.8055 12.6908C54.7029 12.7946 54.625 12.9183 54.5773 13.0535C54.5295 13.1887 54.513 13.3321 54.5288 13.474V15.9974H53.6358V11.684ZM58.9015 10.0001H59.7945V15.9974H58.9015V10.0001ZM61.0359 13.8389C61.0074 13.5554 61.0414 13.2693 61.1357 12.9991C61.23 12.7288 61.3826 12.4804 61.5835 12.2696C61.7844 12.0589 62.0294 11.8905 62.3026 11.7752C62.5758 11.66 62.8712 11.6005 63.17 11.6005C63.4688 11.6005 63.7642 11.66 64.0374 11.7752C64.3106 11.8905 64.5556 12.0589 64.7565 12.2696C64.9574 12.4804 65.11 12.7288 65.2043 12.9991C65.2986 13.2693 65.3326 13.5554 65.3041 13.8389C65.333 14.1226 65.2994 14.409 65.2053 14.6796C65.1112 14.9502 64.9588 15.1991 64.7578 15.4102C64.5568 15.6213 64.3117 15.79 64.0383 15.9054C63.7648 16.0209 63.4691 16.0805 63.17 16.0805C62.8709 16.0805 62.5752 16.0209 62.3017 15.9054C62.0283 15.79 61.7832 15.6213 61.5822 15.4102C61.3812 15.1991 61.2288 14.9502 61.1347 14.6796C61.0406 14.409 61.007 14.1226 61.0359 13.8389ZM64.3851 13.8389C64.3851 12.9038 63.9444 12.3571 63.1712 12.3571C62.3949 12.3571 61.9583 12.9038 61.9583 13.8389C61.9583 14.7814 62.395 15.3239 63.1712 15.3239C63.9444 15.3239 64.3851 14.7776 64.3851 13.8389ZM66.2442 14.7776C66.2442 14.0011 66.8506 13.5535 67.9271 13.4899L69.1527 13.4226V13.0502C69.1527 12.5946 68.8368 12.3374 68.2265 12.3374C67.7279 12.3374 67.3825 12.5119 67.2834 12.8169H66.4188C66.5101 12.0759 67.2412 11.6008 68.2677 11.6008C69.402 11.6008 70.0418 12.1391 70.0418 13.0502V15.9974H69.1822V15.3913H69.1115C68.9681 15.6087 68.7668 15.786 68.528 15.9049C68.2892 16.0239 68.0216 16.0804 67.7525 16.0685C67.5625 16.0873 67.3705 16.068 67.1889 16.0118C67.0073 15.9556 66.84 15.8637 66.6979 15.7421C66.5558 15.6204 66.442 15.4718 66.3638 15.3057C66.2857 15.1396 66.2449 14.9597 66.2442 14.7776ZM69.1527 14.409V14.0484L68.0478 14.1157C67.4247 14.1555 67.142 14.3576 67.142 14.7378C67.142 15.126 67.4953 15.352 67.9811 15.352C68.1234 15.3657 68.2672 15.352 68.4039 15.3117C68.5405 15.2714 68.6673 15.2053 68.7766 15.1173C68.8859 15.0293 68.9756 14.9213 69.0402 14.7996C69.1048 14.6779 69.1431 14.5451 69.1527 14.409ZM71.2155 13.8389C71.2155 12.4758 71.9505 11.6125 73.0937 11.6125C73.3765 11.6 73.6572 11.6646 73.9029 11.7986C74.1486 11.9326 74.3492 12.1305 74.4813 12.3692H74.548V10H75.4409V15.9973H74.5853V15.3158H74.5147C74.3724 15.5529 74.1648 15.7483 73.9143 15.881C73.6639 16.0137 73.3801 16.0785 73.0938 16.0684C71.9426 16.0684 71.2155 15.205 71.2155 13.8389ZM72.138 13.8389C72.138 14.7537 72.5904 15.3043 73.3468 15.3043C74.0995 15.3043 74.5647 14.7458 74.5647 13.8425C74.5647 12.9436 74.0946 12.3772 73.3468 12.3772C72.5952 12.3772 72.138 12.9314 72.138 13.8389ZM79.1356 13.8389C79.1072 13.5554 79.1412 13.2694 79.2355 12.9992C79.3298 12.729 79.4823 12.4806 79.6832 12.2698C79.8841 12.0591 80.129 11.8907 80.4021 11.7755C80.6753 11.6603 80.9707 11.6008 81.2694 11.6008C81.5682 11.6008 81.8636 11.6603 82.1367 11.7755C82.4099 11.8907 82.6548 12.0591 82.8557 12.2698C83.0566 12.4806 83.2091 12.729 83.3034 12.9992C83.3977 13.2694 83.4317 13.5554 83.4033 13.8389C83.4323 14.1227 83.3988 14.4091 83.3048 14.6798C83.2108 14.9505 83.0584 15.1995 82.8574 15.4107C82.6564 15.6219 82.4113 15.7906 82.1379 15.9061C81.8644 16.0216 81.5686 16.0813 81.2694 16.0813C80.9703 16.0813 80.6745 16.0216 80.401 15.9061C80.1275 15.7906 79.8824 15.6219 79.6815 15.4107C79.4805 15.1995 79.3281 14.9505 79.2341 14.6798C79.1401 14.4091 79.1066 14.1227 79.1356 13.8389ZM82.4848 13.8389C82.4848 12.9038 82.0442 12.3571 81.271 12.3571C80.4947 12.3571 80.0581 12.9038 80.0581 13.8389C80.0581 14.7814 80.4948 15.3239 81.271 15.3239C82.0442 15.3239 82.4848 14.7776 82.4848 13.8389ZM84.6015 11.684H85.4611V12.3692H85.5278C85.641 12.1231 85.832 11.9168 86.074 11.779C86.3161 11.6412 86.5972 11.5789 86.8782 11.6007C87.0983 11.5849 87.3194 11.6166 87.525 11.6933C87.7306 11.77 87.9154 11.8899 88.0658 12.0439C88.2162 12.198 88.3284 12.3824 88.3939 12.5833C88.4594 12.7843 88.4767 12.9968 88.4443 13.205V15.9973H87.5513V13.4188C87.5513 12.7257 87.2353 12.3809 86.5749 12.3809C86.4254 12.3743 86.2762 12.3985 86.1375 12.452C85.9988 12.5055 85.8738 12.587 85.7712 12.6908C85.6686 12.7946 85.5907 12.9183 85.543 13.0535C85.4952 13.1887 85.4787 13.3321 85.4945 13.474V15.9974H84.6016L84.6015 11.684ZM93.4902 10.6101V11.7037H94.4706V12.4207H93.4902V14.6386C93.4902 15.0905 93.6855 15.2884 94.1301 15.2884C94.2438 15.288 94.3575 15.2814 94.4705 15.2687V15.9778C94.3101 16.0051 94.1477 16.0197 93.9848 16.0213C92.9918 16.0213 92.5962 15.6882 92.5962 14.8567V12.4207H91.878V11.7036H92.5962V10.6102L93.4902 10.6101ZM95.6903 10.0001H96.5755V12.3772H96.6461C96.7648 12.1288 96.961 11.9213 97.2079 11.783C97.4548 11.6447 97.7404 11.5823 98.0258 11.6044C98.2448 11.5931 98.4638 11.6279 98.6671 11.7065C98.8703 11.7851 99.0529 11.9055 99.2017 12.0591C99.3506 12.2127 99.462 12.3957 99.5281 12.5951C99.5942 12.7945 99.6133 13.0053 99.5841 13.2126V15.9974H98.6902V13.4226C98.6902 12.7335 98.3536 12.3846 97.7226 12.3846C97.5691 12.3727 97.4148 12.3928 97.2703 12.4436C97.1258 12.4944 96.9948 12.5747 96.8862 12.6789C96.7777 12.783 96.6944 12.9085 96.6421 13.0466C96.5897 13.1847 96.5697 13.332 96.5833 13.4782V15.9974H95.6903V10.0001ZM104.791 14.8327C104.67 15.2269 104.407 15.568 104.048 15.7961C103.69 16.0242 103.259 16.125 102.83 16.0807C102.532 16.0882 102.236 16.0338 101.962 15.9212C101.688 15.8086 101.443 15.6406 101.245 15.4287C101.046 15.2169 100.898 14.9663 100.81 14.6945C100.723 14.4226 100.699 14.1359 100.74 13.8543C100.7 13.5718 100.725 13.2845 100.812 13.0118C100.899 12.7391 101.046 12.4873 101.244 12.2736C101.442 12.06 101.685 11.8893 101.958 11.7732C102.231 11.6571 102.527 11.5982 102.826 11.6007C104.085 11.6007 104.845 12.4207 104.845 13.7752V14.0722H101.65V14.1199C101.636 14.2782 101.657 14.4375 101.711 14.5877C101.765 14.7378 101.852 14.8755 101.966 14.9918C102.079 15.1082 102.217 15.2006 102.37 15.2633C102.523 15.3259 102.688 15.3574 102.855 15.3556C103.068 15.3801 103.285 15.3434 103.477 15.2503C103.668 15.1572 103.827 15.0118 103.931 14.8327H104.791ZM101.65 13.4427H103.935C103.947 13.2979 103.926 13.1525 103.875 13.0158C103.823 12.8791 103.743 12.7541 103.638 12.6488C103.533 12.5436 103.406 12.4605 103.266 12.4047C103.125 12.349 102.974 12.3219 102.821 12.3253C102.667 12.3234 102.514 12.351 102.371 12.4065C102.228 12.462 102.098 12.5443 101.988 12.6484C101.879 12.7526 101.793 12.8765 101.735 13.0129C101.677 13.1493 101.648 13.2954 101.65 13.4427Z" fill="white"/>
</svg>
