<svg width="203" height="39" viewBox="0 0 203 39" fill="none" xmlns="http://www.w3.org/2000/svg">
<path d="M9.17656 19.322L4.5863 23.6863L0 19.322L4.5863 14.9578L9.17656 19.322ZM20.3051 8.72473L28.1645 16.2074L32.7507 11.8431L20.3051 0L7.85939 11.8431L12.4457 16.2074L20.3051 8.72473ZM36.0278 14.9578L31.4415 19.322L36.0278 23.6863L40.6101 19.322L36.0278 14.9578ZM20.3051 29.9193L12.4457 22.4404L7.85939 26.8009L20.3051 38.644L32.7507 26.8009L28.1645 22.4404L20.3051 29.9193ZM20.3051 23.6863L24.8914 19.322L20.3051 14.9578L15.7188 19.322L20.3051 23.6863ZM68.7071 24.1053V24.0449C68.7071 21.1983 67.1202 19.775 64.5374 18.8388C66.1244 17.9893 67.4653 16.6566 67.4653 14.2669V14.2065C67.4653 10.8767 64.6644 8.72473 60.1138 8.72473H49.7827V29.9193H60.3756C65.4023 29.9193 68.7151 27.9826 68.7151 24.1053H68.7071ZM62.5974 15.0446C62.5974 16.6189 61.2286 17.2871 59.0664 17.2871H54.5555V12.8134H59.3917C61.4587 12.8134 62.6053 13.5986 62.6053 14.9917L62.5974 15.0446ZM63.8392 23.5239C63.8392 25.0982 62.5339 25.8231 60.3677 25.8231H54.5555V21.1681H60.2169C62.7323 21.1681 63.8471 22.0478 63.8471 23.4711L63.8392 23.5239ZM79.0025 29.9193V8.72473H74.0869V29.9193H79.0025ZM105.342 29.9193V8.72473H100.49V21.776L90.0556 8.72473H85.5368V29.9193H90.373V16.4452L101.156 29.9193H105.342ZM132.483 29.9193L122.921 8.57372H118.403L108.861 29.9193H113.856L115.899 25.1662H125.318L127.353 29.9193H132.483ZM123.576 21.0473H117.641L120.601 14.1763L123.576 21.0473ZM155.839 29.9193V8.72473H150.987V21.776L140.549 8.72473H136.034V29.9193H140.866V16.4452L151.653 29.9193H155.839ZM181.131 26.4989L178.016 23.5013C176.267 25.0114 174.708 25.9816 172.161 25.9816C168.344 25.9816 165.702 22.9614 165.702 19.322V19.2616C165.702 15.6298 168.407 12.6624 172.161 12.6624C174.386 12.6624 176.128 13.5684 177.858 15.0521L180.964 11.6317C178.897 9.69498 176.386 8.3623 172.184 8.3623C165.345 8.3623 160.572 13.2966 160.572 19.3107V19.3711C160.572 25.4569 165.44 30.2704 171.994 30.2704C176.283 30.2817 178.826 28.8282 181.115 26.4989H181.131ZM202.039 29.9193V25.7665H189.931V21.3078H200.432V17.155H189.931V12.8738H201.864V8.72095H185.063V29.9155L202.039 29.9193Z" fill="#424147"/>
</svg>
