<svg width="186" height="39" viewBox="0 0 186 39" fill="none" xmlns="http://www.w3.org/2000/svg">
<path fill-rule="evenodd" clip-rule="evenodd" d="M14.4205 33.63C15.8564 33.63 17.1996 33.3803 18.4657 32.8954C18.4657 32.9395 21.0441 36.7448 21.0904 36.7594C18.8083 37.9228 16.2526 38.5144 13.664 38.4784C5.7435 38.4931 0 33.5125 0 25.5935C0 17.6157 6.02142 12.6645 13.664 12.6645C16.3659 12.6645 18.512 13.2228 20.6581 14.31L18.1878 18.2769C16.8908 17.792 15.563 17.5717 14.1735 17.5717C9.49531 17.5717 5.86702 20.4072 5.86702 25.5935C5.86702 30.5006 9.37179 33.63 14.4205 33.63ZM34.3838 12.6645C42.1653 12.6645 47.8008 17.9096 47.8008 25.5935C47.8008 33.2334 42.1653 38.4784 34.3684 38.4784C26.6486 38.4784 21.0132 33.2334 21.0132 25.5935C21.0132 17.9096 26.6486 12.6645 34.3838 12.6645ZM34.3838 17.3954C30.0453 17.3954 26.8802 20.5835 26.8802 25.5935C26.8802 30.5594 30.0453 33.7476 34.3838 33.7476C38.8304 33.7476 41.9492 30.5594 41.9492 25.5935C41.9492 20.5835 38.8304 17.3954 34.3838 17.3954ZM51.4908 37.9201V13.2228H57.2961V37.9054H51.4908V37.9201ZM50.7188 5.62705C50.779 4.74837 51.1883 3.92441 51.8636 3.32237C52.5388 2.72033 53.4295 2.38531 54.3549 2.38531C55.2802 2.38531 56.1709 2.72033 56.8461 3.32237C57.5214 3.92441 57.9307 4.74837 57.9909 5.62705C57.9911 6.54963 57.6113 7.43555 56.933 8.09475C56.2547 8.75395 55.3319 9.13391 54.3626 9.15313C53.3932 9.13391 52.4705 8.75395 51.7922 8.09475C51.1138 7.43555 50.7341 6.54963 50.7343 5.62705H50.7188ZM62.3602 14.7802C66.1629 13.4201 70.1865 12.704 74.2487 12.6645C80.8877 12.6645 85.0872 15.0593 85.0872 22.0233V37.9201H79.3592V22.5376C79.3592 18.9674 77.0278 17.6892 73.8009 17.6892C71.7475 17.6892 69.694 17.9537 68.1655 18.4091V37.9054H62.3757V14.7802H62.3602ZM89.9507 0H95.7559V13.884C96.9911 13.2669 99.3842 12.6645 101.669 12.6645C109.173 12.6645 114.793 17.2191 114.793 25.1528C114.793 33.1305 109.235 38.4784 99.6312 38.4784C95.8794 38.4784 92.5908 37.7438 89.9507 36.8623V0ZM95.7559 33.2334C96.8676 33.5713 98.3343 33.7476 99.8011 33.7476C105.128 33.7476 108.941 30.9561 108.941 25.2703C108.941 20.466 105.359 17.6304 100.974 17.6304C98.6894 17.6304 96.9293 18.1887 95.7559 18.8058V33.2334ZM131.576 21.3622C131.576 18.6883 129.445 17.4541 126.573 17.4541C123.593 17.4541 121.247 18.2916 119.085 19.4669V14.6626C121.671 13.3254 124.572 12.6377 127.515 12.6645C133.197 12.6645 137.242 14.8977 137.242 21.0831V37.4206C134.772 38.0377 131.267 38.4196 128.333 38.4196C121.602 38.4196 116.676 36.4803 116.676 30.8973C116.676 25.8727 121.185 23.4191 128.688 23.4191H131.56V21.3622H131.576ZM131.576 27.0921H129.105C125.06 27.0921 122.42 28.2234 122.42 30.7357C122.42 33.2921 124.89 34.2912 128.395 34.2912C129.275 34.2912 130.51 34.1883 131.56 34.0267V27.1068L131.576 27.0921ZM141.457 31.2352C143.719 32.941 146.493 33.9186 149.377 34.0267C151.956 34.0267 153.654 33.1893 153.654 31.2352C153.654 29.2224 152.126 28.5025 148.791 27.6651C143.387 26.4897 141.117 24.4328 141.117 20.1281C141.117 15.1181 145.101 12.6645 150.381 12.6645C153.314 12.6645 155.646 13.2669 157.823 14.5598V19.6285C155.754 18.0571 153.198 17.1792 150.551 17.1309C148.034 17.1309 146.691 18.3063 146.691 19.9224C146.691 21.5385 147.787 22.3613 150.782 23.1546C156.711 24.3741 159.274 26.4897 159.274 30.9414C159.274 36.1424 155.121 38.4784 149.501 38.4784C146.682 38.532 143.903 37.8403 141.472 36.4803V31.2352H141.457ZM167.225 26.8276V26.9305C167.581 31.3381 171.549 33.7476 175.609 33.7476C179.176 33.7476 181.754 32.9542 184.332 31.3381V36.1865C181.986 37.7585 178.527 38.4784 175.192 38.4784C167.102 38.4784 161.605 33.5713 161.605 25.7698C161.605 17.9096 166.994 12.6645 174.142 12.6645C181.708 12.6645 185.274 17.2925 185.274 24.0362V26.8276H167.21H167.225ZM179.824 23.2575C179.701 19.4082 177.709 17.2925 173.957 17.2925C170.622 17.2925 168.167 19.5257 167.395 23.2575H179.824Z" fill="#424147"/>
</svg>
