<svg width="14" height="16" viewBox="0 0 14 16" fill="none" xmlns="http://www.w3.org/2000/svg">
<g clip-path="url(#clip0_31402_835)">
<path d="M7.03237 0C3.22414 0 0.1259 3.5888 0.1259 8C0.1259 12.4112 3.22414 16 7.03237 16C10.8406 16 13.9388 12.4112 13.9388 8C13.9388 3.5888 10.8406 0 7.03237 0ZM7.03237 13.8182C4.26275 13.8182 2.00948 11.2081 2.00948 8C2.00948 4.79185 4.26275 2.18182 7.03237 2.18182C9.802 2.18182 12.0553 4.79185 12.0553 8C12.0553 11.2081 9.802 13.8182 7.03237 13.8182ZM8.89825 9.32829L9.91652 10.4239L9.40343 10.9441C8.76075 11.5954 7.93976 11.9543 7.09183 11.9543C5.18665 11.9543 3.63665 10.1959 3.63665 8.03462C3.63665 5.87833 5.18665 4.124 7.09183 4.124C7.94045 4.124 8.75868 4.47949 9.39558 5.12502L9.8899 5.62611L8.91407 6.75709L8.48079 6.31367C8.10803 5.93236 7.61484 5.72233 7.09183 5.72233C5.94749 5.72233 5.0165 6.75964 5.0165 8.03454C5.0165 9.31454 5.94749 10.3559 7.09183 10.3559C7.60907 10.3559 8.10231 10.1425 8.48079 9.75527L8.89825 9.32829Z" fill="white" fill-opacity="0.6"/>
</g>
<defs>
<clipPath id="clip0_31402_835">
<rect width="13.8129" height="16" fill="white" transform="translate(0.1259)"/>
</clipPath>
</defs>
</svg>
