<svg width="33" height="32" viewBox="0 0 33 32" fill="none" xmlns="http://www.w3.org/2000/svg">
<path opacity="0.4" d="M16.7892 29.3309C15.7639 29.3309 14.7399 28.9415 13.9572 28.1642L12.9839 27.1909C12.6065 26.8149 12.1012 26.6069 11.5652 26.6055H10.1959C7.98253 26.6055 6.1812 24.8042 6.1812 22.5909V21.2202C6.17986 20.6855 5.97186 20.1802 5.59453 19.8002L4.6372 18.8442C3.0692 17.2855 3.06253 14.7375 4.62253 13.1682L5.59586 12.1935C5.97186 11.8162 6.17986 11.3109 6.1812 10.7749V9.40686C6.1812 7.1922 7.98253 5.39086 10.1959 5.39086H11.5665C12.1012 5.39086 12.6052 5.18286 12.9852 4.80286L13.9439 3.84686C15.5025 2.27886 18.0492 2.27086 19.6199 3.8322L20.5932 4.80553C20.9719 5.18286 21.4759 5.39086 22.0105 5.39086H23.3812C25.5945 5.39086 27.3959 7.1922 27.3959 9.40686V10.7762C27.3972 11.3109 27.6052 11.8162 27.9825 12.1962L28.9399 13.1535C29.6985 13.9082 30.1185 14.9135 30.1225 15.9869C30.1252 17.0535 29.7145 18.0575 28.9665 18.8162C28.9532 18.8295 28.9412 18.8442 28.9279 18.8562L27.9812 19.8029C27.6052 20.1802 27.3972 20.6855 27.3959 21.2215V22.5909C27.3959 24.8042 25.5945 26.6055 23.3812 26.6055H22.0105C21.4759 26.6069 20.9705 26.8149 20.5919 27.1922L19.6332 28.1495C18.8519 28.9362 17.8199 29.3309 16.7892 29.3309" fill="#393939"/>
<path fill-rule="evenodd" clip-rule="evenodd" d="M14.1808 13.4011C13.9608 13.6211 13.6755 13.7398 13.3595 13.7398C13.0635 13.7398 12.7728 13.6184 12.5395 13.3998C12.3181 13.1798 12.1928 12.8784 12.1928 12.5731C12.1928 12.2824 12.3155 11.9838 12.5315 11.7531C12.6501 11.6331 12.7915 11.5424 12.9328 11.4944C13.3355 11.3104 13.8701 11.4184 14.1875 11.7518C14.3008 11.8651 14.3875 11.9891 14.4448 12.1184C14.5075 12.2571 14.5395 12.4144 14.5395 12.5731C14.5395 12.8904 14.4128 13.1851 14.1808 13.4011ZM21.0444 11.7463C20.5897 11.293 19.8497 11.293 19.3951 11.7463L12.5417 18.5996C12.0871 19.0543 12.0871 19.7943 12.5417 20.2503C12.7631 20.4703 13.0551 20.5916 13.3671 20.5916C13.6791 20.5916 13.9711 20.4703 14.1911 20.2503L21.0444 13.397C21.4991 12.941 21.4991 12.2023 21.0444 11.7463ZM20.6648 18.3518C20.2328 18.1704 19.7208 18.2691 19.3795 18.6104C19.3088 18.6931 19.2088 18.8211 19.1408 18.9718C19.0688 19.1344 19.0595 19.3091 19.0595 19.4264C19.0595 19.5438 19.0688 19.7171 19.1408 19.8798C19.2075 20.0291 19.2875 20.1504 19.3928 20.2558C19.6341 20.4798 19.9141 20.5931 20.2261 20.5931C20.5221 20.5931 20.8128 20.4731 21.0515 20.2504C21.2635 20.0384 21.3795 19.7451 21.3795 19.4264C21.3795 19.1064 21.2635 18.8144 21.0501 18.6011C20.9328 18.4851 20.7915 18.3944 20.6648 18.3518Z" fill="#00F6FF"/>
</svg>
