<svg width="43" height="40" viewBox="0 0 43 40" fill="none" xmlns="http://www.w3.org/2000/svg">
<path d="M21.029 2.14764C31.8721 2.14764 40.6452 10.4914 40.6452 20.7883C40.6452 31.0851 31.8721 39.4445 21.029 39.4445C10.1859 39.4445 1.41281 31.1008 1.41281 20.8039C1.41281 10.507 10.1859 2.14764 21.029 2.14764Z" fill="#E74D89"/>
<path d="M21.0291 40.7726C9.43023 40.7726 0 31.8195 0 20.8039C0 9.77264 9.43023 0.819519 21.0291 0.819519C32.6279 0.819519 42.0582 9.77264 42.0582 20.7883C42.0582 31.8039 32.6279 40.7726 21.0291 40.7726ZM38.7559 23.5226C38.1481 23.3351 33.203 21.9445 27.5678 22.7883C29.9172 28.9133 30.87 33.9133 31.0508 34.9445C35.0923 32.3664 37.9674 28.2726 38.7559 23.5226ZM28.0443 36.5226C27.7814 35.0226 26.7299 29.8039 24.2163 23.5851C24.1834 23.6008 24.1342 23.6164 24.1013 23.6164C13.9646 26.9758 10.3338 33.6476 10.0052 34.2726C13.0446 36.5226 16.8726 37.8664 21.0291 37.8664C23.5099 37.882 25.8921 37.3976 28.0443 36.5226ZM7.68876 32.2258C8.09948 31.5695 13.0282 23.8195 22.2941 20.9601C22.5241 20.882 22.7706 20.8195 23.0006 20.757C22.557 19.7883 22.0641 18.8195 21.5384 17.8664C12.5682 20.4133 3.86081 20.3039 3.07222 20.2883C3.07222 20.4601 3.05579 20.632 3.05579 20.8039C3.07222 25.1945 4.81369 29.1945 7.68876 32.2258ZM3.45008 17.3195C4.2551 17.3351 11.6481 17.3664 20.0598 15.2414C17.0861 10.2101 13.8661 5.99139 13.406 5.38202C8.36235 7.63202 4.61654 12.0383 3.45008 17.3195ZM16.8233 4.22577C17.3161 4.85077 20.5855 9.06952 23.5263 14.2101C29.9172 11.9289 32.6115 8.49139 32.9401 8.05389C29.7693 5.38202 25.5963 3.75702 21.0291 3.75702C19.5833 3.75702 18.1704 3.92889 16.8233 4.22577ZM34.928 10.0226C34.5501 10.507 31.5436 14.1789 24.9063 16.757C25.317 17.5695 25.7278 18.3976 26.1056 19.2258C26.2371 19.5226 26.3685 19.8195 26.4999 20.1008C32.4801 19.382 38.4109 20.5383 39.0024 20.6476C38.9531 16.632 37.4416 12.9289 34.928 10.0226Z" fill="#B2215A"/>
</svg>
