<svg width="203" height="38" viewBox="0 0 203 38" fill="none" xmlns="http://www.w3.org/2000/svg">
<path d="M23.4465 7.12065L11.7233 14.2413L23.4465 21.3619L11.7233 28.4826L0 21.3026L11.7233 14.182L0 7.12065L11.7233 0L23.4465 7.12065ZM11.6609 30.7375L23.3842 23.6168L35.1074 30.7375L23.3842 37.8581L11.6609 30.7375ZM23.4465 21.3026L35.1698 14.182L23.4465 7.12065L35.1074 0L46.8307 7.12065L35.1074 14.2413L46.8307 21.3619L35.1074 28.4826L23.4465 21.3026Z" fill="#424147"/>
<path d="M55.9949 7.12052H65.4732C71.5219 7.12052 76.5106 10.4435 76.5106 18.0388V19.641C76.5106 27.2957 71.8337 30.7373 65.6603 30.7373H55.9949V7.12052ZM61.2953 11.3929V26.4056H65.3485C68.7782 26.4056 71.0854 24.2694 71.0854 19.5223V18.2762C71.0854 13.5291 68.6535 11.3929 65.1615 11.3929H61.2953ZM79.3167 11.6303H83.557L84.2429 16.0807C85.0536 13.0544 87.1114 11.4522 90.8528 11.4522H92.1623V16.5554H89.9798C85.6771 16.5554 84.6171 17.9795 84.6171 22.0145V30.7967H79.379V11.6303H79.3167ZM93.2224 21.5992V21.0651C93.2224 14.6565 97.5251 11.1556 103.387 11.1556C109.373 11.1556 113.551 14.6565 113.551 21.0651V21.5992C113.551 27.8891 109.498 31.2714 103.387 31.2714C96.9015 31.212 93.2224 27.8891 93.2224 21.5992ZM108.188 21.5398V21.0651C108.188 17.5048 106.318 15.3686 103.324 15.3686C100.394 15.3686 98.4605 17.3268 98.4605 21.0651V21.5398C98.4605 24.9815 100.331 26.9397 103.324 26.9397C106.318 26.8803 108.188 24.9815 108.188 21.5398ZM116.295 11.6303H120.66L121.159 15.2499C122.219 12.817 124.464 11.1556 127.769 11.1556C132.882 11.1556 136.249 14.6565 136.249 21.1245V21.6585C136.249 27.9484 132.508 31.2714 127.769 31.2714C124.588 31.2714 122.406 29.9066 121.346 27.7111V37.3833H116.232L116.295 11.6303ZM130.949 21.5398V21.1245C130.949 17.3268 128.891 15.4279 126.147 15.4279C123.216 15.4279 121.283 17.5641 121.283 21.1245V21.4805C121.283 24.8628 123.154 26.999 126.085 26.999C129.078 26.9397 130.949 25.1002 130.949 21.5398ZM143.982 27.2364L143.545 30.7373H139.055V5.22168H144.169V15.0126C145.291 12.5203 147.536 11.1556 150.716 11.1556C155.518 11.2149 159.072 14.3598 159.072 20.7091V21.3025C159.072 27.6517 155.705 31.2714 150.592 31.2714C147.224 31.212 145.042 29.7286 143.982 27.2364ZM153.709 21.3025V20.8278C153.709 17.3268 151.714 15.3686 148.908 15.3686C146.039 15.3686 144.044 17.5641 144.044 20.8871V21.3025C144.044 24.8628 145.977 26.9397 148.846 26.9397C151.901 26.9397 153.709 25.1002 153.709 21.3025ZM161.317 21.5992V21.0651C161.317 14.6565 165.62 11.1556 171.481 11.1556C177.468 11.1556 181.646 14.6565 181.646 21.0651V21.5992C181.646 27.8891 177.53 31.2714 171.481 31.2714C164.996 31.212 161.317 27.8891 161.317 21.5992ZM176.345 21.5398V21.0651C176.345 17.5048 174.475 15.3686 171.481 15.3686C168.551 15.3686 166.617 17.3268 166.617 21.0651V21.5398C166.617 24.9815 168.488 26.9397 171.481 26.9397C174.475 26.8803 176.345 24.9815 176.345 21.5398ZM188.505 20.8278L181.459 11.6303H187.507L191.561 17.3861L195.676 11.6303H201.662L194.491 20.7684L202.037 30.7373H196.113L191.498 24.3881L187.008 30.7373H180.835L188.505 20.8278Z" fill="#424147"/>
</svg>
