<svg width="134" height="44" viewBox="0 0 134 44" fill="none" xmlns="http://www.w3.org/2000/svg">
<path d="M128.525 43.0374H5.87392C3.17561 43.0374 0.96785 40.6165 0.96785 37.6577V5.3797C0.96785 2.42085 3.17557 0 5.87392 0H128.525C131.224 0 133.431 2.42085 133.431 5.3797V37.6577C133.431 40.6165 131.224 43.0374 128.525 43.0374" fill="black"/>
<path d="M47.4936 11.0213C47.4936 11.9227 47.2501 12.6406 46.7626 13.176C46.2088 13.8128 45.487 14.1314 44.5997 14.1314C43.7499 14.1314 43.0275 13.8086 42.4333 13.1622C41.8382 12.5162 41.5411 11.7151 41.5411 10.7594C41.5411 9.80322 41.8382 9.00265 42.4333 8.35614C43.0275 7.71022 43.7499 7.38696 44.5997 7.38696C45.0213 7.38696 45.425 7.47739 45.8082 7.6577C46.1915 7.83845 46.4989 8.07839 46.7289 8.37887L46.2114 8.94666C45.8217 8.43603 45.285 8.1809 44.5997 8.1809C43.98 8.1809 43.4441 8.41968 42.9919 8.89753C42.5395 9.37586 42.3134 9.99616 42.3134 10.7594C42.3134 11.5227 42.5395 12.1429 42.9919 12.6213C43.4441 13.0992 43.9799 13.3379 44.5997 13.3379C45.2571 13.3379 45.8052 13.0978 46.244 12.6171C46.5288 12.3039 46.6936 11.8686 46.7376 11.3095H44.5996V10.5341H47.4525C47.4801 10.7027 47.4935 10.8645 47.4935 11.0213" fill="white"/>
<path d="M47.4925 11.0212H47.3944C47.3936 11.9021 47.1589 12.5863 46.6921 13.0999L46.6911 13.1008L46.6906 13.1016C46.1544 13.7164 45.4651 14.0224 44.5985 14.0237C43.7715 14.0224 43.0792 13.7131 42.5012 13.086C41.9244 12.4577 41.6392 11.6906 41.6381 10.7593C41.6392 9.82756 41.9244 9.06094 42.5012 8.43305C43.0792 7.80555 43.7715 7.49578 44.5985 7.49448C45.0075 7.49448 45.397 7.582 45.7684 7.75637C46.1401 7.93209 46.4338 8.16236 46.6526 8.44823L46.7278 8.3788L46.6584 8.30273L46.1409 8.8709L46.2103 8.94658L46.2859 8.87772C45.8779 8.3418 45.3054 8.07164 44.5986 8.07324C43.9559 8.07237 43.3905 8.3242 42.9228 8.82018C42.4507 9.31775 42.2134 9.97297 42.2142 10.7593C42.2134 11.5457 42.4507 12.2009 42.9228 12.6985C43.3905 13.1945 43.9559 13.4463 44.5985 13.4454C45.2777 13.4467 45.8566 13.194 46.3123 12.6931C46.6166 12.3585 46.7891 11.895 46.8343 11.3187L46.8435 11.2019H44.6967V10.6416H47.4514V10.534L47.3548 10.5529C47.3816 10.7161 47.3943 10.8711 47.3943 11.0212H47.5906C47.5906 10.8577 47.5767 10.6896 47.548 10.5148L47.5335 10.4264H44.5005V11.417H46.7366V11.3095L46.6389 11.3002C46.5956 11.8416 46.4384 12.2493 46.1735 12.541C45.7519 13.0016 45.2345 13.2289 44.5986 13.2302C44.0019 13.2293 43.4955 13.0041 43.059 12.5439C42.6266 12.0853 42.4116 11.4999 42.4105 10.7593C42.4116 10.0188 42.6266 9.43332 43.059 8.97477C43.4955 8.51458 44.0018 8.28929 44.5986 8.28842C45.2621 8.29016 45.7631 8.53053 46.1353 9.01597L46.2043 9.10591L46.7972 8.45491L46.8608 8.38518L46.8029 8.30984C46.5618 7.99471 46.2406 7.74457 45.8458 7.55889C45.4503 7.37262 45.0329 7.2793 44.5986 7.2793C43.7263 7.27848 42.9735 7.61469 42.3629 8.28005C41.7501 8.94411 41.4411 9.77882 41.442 10.7593C41.4411 11.7394 41.7501 12.5746 42.3633 13.239C42.9735 13.9039 43.7263 14.2398 44.5986 14.2389C45.507 14.2398 46.2606 13.9089 46.8324 13.2503L46.7615 13.176L46.8309 13.2521C47.3391 12.6952 47.5913 11.9429 47.5906 11.0212H47.4925H47.4925ZM52.0152 8.32459H49.3341V10.3715H51.7519V11.1472H49.3341V13.194H52.0152V13.9871H48.5783V7.53152H52.0152V8.32459Z" fill="white"/>
<path d="M52.0164 8.32449V8.2169H49.2372V10.479H51.655V11.0392L49.2372 11.0395V13.3015H51.9183V13.8794H48.6777V7.63901H51.9183V8.32449H52.0164V8.2169V8.32449H52.1145V7.42383H48.4814V14.0946H52.1145V13.0864H49.4334V11.2547H51.8513V10.2638H49.4334V8.43208H52.1145V8.32449H52.0164ZM55.2065 13.9871H54.4495V8.32444H52.8052V7.53137H56.8508V8.32444H55.2065V13.987" fill="white"/>
<path d="M55.2067 13.9871V13.8794H54.5479V8.2169H52.9036V7.63906H56.7529V8.2169H55.1086V13.987H55.2067V13.8794V13.987H55.3049V8.43208H56.9492V7.42383H52.7073V8.43203H54.3516V14.0946H55.3049V13.987H55.2067V13.9871ZM59.7782 13.9871V7.53137H60.5344V13.987H59.7782" fill="white"/>
<path d="M59.7813 13.9871H59.8795V7.63901H60.4394V13.8794H59.7813V13.987H59.8795H59.7813V14.0946H60.6357V7.42383H59.6832V14.0946H59.7813V13.987V13.9871ZM63.8932 13.9871H63.1362V8.32444H61.492V7.53137H65.5375V8.32444H63.8932V13.987" fill="white"/>
<path d="M63.8919 13.9872V13.8796H63.2331V8.21707H61.5889V7.63923H65.4381V8.21707H63.7938V13.9872H63.8919V13.8796V13.9872H63.9901V8.43225H65.6344V7.424H61.3926V8.43221H63.0368V14.0947H63.9901V13.9871H63.8919V13.9872ZM69.4366 12.6125C69.8723 13.0962 70.4056 13.3378 71.0361 13.3378C71.6666 13.3378 72.2001 13.0962 72.6351 12.6125C73.0713 12.1288 73.2898 11.5104 73.2898 10.7594C73.2898 10.0084 73.0713 9.39007 72.6351 8.90633C72.2001 8.42258 71.6666 8.1809 71.0361 8.1809C70.4056 8.1809 69.8723 8.42258 69.4366 8.90633C69.0015 9.39007 68.7831 10.0084 68.7831 10.7594C68.7831 11.5104 69.0015 12.1288 69.4366 12.6125ZM73.1947 13.1529C72.6159 13.8056 71.8961 14.1314 71.0361 14.1314C70.1752 14.1314 69.4557 13.8056 68.8782 13.1529C68.299 12.501 68.0108 11.703 68.0108 10.7594C68.0108 9.81579 68.299 9.01764 68.8782 8.36586C69.4557 7.71307 70.1752 7.38696 71.0361 7.38696C71.8916 7.38696 72.6094 7.71481 73.1909 8.37007C73.7716 9.02528 74.0621 9.82169 74.0621 10.7594C74.0621 11.703 73.7723 12.501 73.1947 13.1529Z" fill="white"/>
<path d="M69.4334 12.6124L69.3636 12.6881C69.8156 13.1911 70.3794 13.4467 71.0329 13.4454C71.686 13.4467 72.2505 13.1911 72.7017 12.6881C73.1566 12.1845 73.3854 11.533 73.3847 10.7593C73.3854 9.98564 73.1566 9.33415 72.7017 8.83058C72.2505 8.32749 71.686 8.07198 71.0329 8.07324C70.3794 8.07198 69.8156 8.32749 69.3636 8.83058C68.9098 9.33415 68.6806 9.98564 68.6818 10.7593C68.6806 11.533 68.9098 12.1845 69.3636 12.6881L69.4334 12.6124L69.5032 12.5368C69.0869 12.0723 68.8788 11.4881 68.878 10.7593C68.8788 10.0306 69.0869 9.44638 69.5032 8.98188C69.9232 8.51753 70.4249 8.28973 71.0329 8.28847C71.6403 8.28973 72.1432 8.51753 72.5622 8.98188C72.9792 9.44638 73.1873 10.0306 73.1881 10.7593C73.1873 11.488 72.9792 12.0723 72.5622 12.5368C72.1432 13.0012 71.6404 13.2289 71.0329 13.2302C70.4249 13.2289 69.9232 13.0012 69.5032 12.5368L69.4334 12.6124ZM73.1915 13.1528L73.1214 13.0781C72.5587 13.7102 71.8707 14.0225 71.0329 14.0237C70.1946 14.0224 69.5066 13.7102 68.945 13.0781L68.9424 13.0747L68.945 13.0781C68.3836 12.4438 68.1065 11.6789 68.1057 10.7593C68.1065 9.8397 68.3836 9.07482 68.945 8.4406C69.5066 7.80845 70.1946 7.49579 71.0329 7.49453C71.8653 7.49579 72.5518 7.80975 73.1175 8.44519C73.681 9.08236 73.9596 9.84604 73.9608 10.7593C73.9596 11.6789 73.6818 12.4438 73.1214 13.0781L73.1915 13.1528L73.2621 13.2276C73.8569 12.5577 74.1577 11.7268 74.1571 10.7593C74.1578 9.79734 73.8557 8.9681 73.2582 8.29524C72.6603 7.61972 71.9114 7.27814 71.0329 7.2793C70.1498 7.27814 69.3986 7.61812 68.8044 8.29103V8.29055C68.2085 8.9609 67.9087 9.79183 67.9095 10.7593C67.9087 11.7268 68.2085 12.5577 68.8044 13.228L68.8071 13.2311L68.8044 13.2276C69.3986 13.9005 70.1498 14.2398 71.0329 14.2389C71.9156 14.2398 72.6668 13.9005 73.2621 13.2276L73.1915 13.1528ZM75.1206 13.9872V7.53147H76.0413L78.9025 12.5535H78.9351L78.9025 11.3094V7.53147H79.6595V13.9871H78.8699L75.8764 8.72168H75.8438L75.8764 9.9662V13.9871H75.1206" fill="white"/>
<path d="M75.1251 13.9871H75.2232V7.63901H75.9913L78.8525 12.661H79.0403L79.0051 11.3078V7.63906H79.5659V13.8794H78.9289L75.9354 8.61404H75.7476L75.7828 9.96789V13.8794H75.1251V13.987H75.2232H75.1251V14.0946H75.979V9.96445L75.9465 8.71873L75.8484 8.72163V8.82922H75.8809V8.72163L75.7977 8.77883L78.82 14.0946H79.7621V7.42383H78.8089V11.3106L78.8414 12.5563L78.9396 12.5534V12.4458H78.907V12.5534L78.9902 12.4963L76.1001 7.42383H75.027V14.0946H75.1252V13.987L75.1251 13.9871ZM105.897 32.2779H107.727V18.8275H105.896L105.897 32.2779ZM122.388 23.6726L120.289 29.5041H120.226L118.048 23.6726H116.076L119.342 31.8231L117.48 36.3568H119.39L124.424 23.6726L122.388 23.6726ZM112.005 30.7502C111.404 30.7502 110.568 30.4215 110.568 29.6079C110.568 28.5697 111.61 28.1717 112.509 28.1717C113.315 28.1717 113.692 28.3621 114.182 28.6219C114.04 29.8676 113.061 30.7502 112.005 30.7502ZM112.225 23.3784C110.9 23.3784 109.527 24.0188 108.959 25.4378L110.584 26.1817C110.931 25.4378 111.578 25.1952 112.257 25.1952C113.204 25.1952 114.166 25.8185 114.182 26.926V27.0643C113.85 26.8566 113.141 26.5452 112.272 26.5452C110.521 26.5452 108.737 27.6005 108.737 29.5734C108.737 31.3731 110.174 32.5326 111.783 32.5326C113.014 32.5326 113.692 31.927 114.119 31.2176H114.182V32.2557H115.949V27.0987C115.949 24.7111 114.324 23.3784 112.225 23.3784ZM100.91 25.3099H98.3059V20.6995H100.91C102.279 20.6995 103.056 21.9422 103.056 23.0047C103.056 24.047 102.279 25.3099 100.91 25.3099ZM100.863 18.8275H96.4759V32.2779H98.3058V27.182H100.863C102.892 27.182 104.887 25.571 104.887 23.0047C104.887 20.4385 102.892 18.8275 100.863 18.8275ZM76.9399 30.7527C75.6751 30.7527 74.6161 29.5915 74.6161 27.9965C74.6161 26.3847 75.6751 25.2058 76.9399 25.2058C78.1888 25.2058 79.1688 26.3847 79.1688 27.9965C79.1688 29.5915 78.1887 30.7527 76.94 30.7527H76.9399ZM79.0423 24.4258H78.979C78.5682 23.8885 77.7774 23.4032 76.7817 23.4032C74.695 23.4032 72.7825 25.4138 72.7825 27.9965C72.7825 30.5619 74.695 32.5553 76.7817 32.5553C77.7774 32.5553 78.5682 32.0698 78.979 31.5155H79.0423V32.1741C79.0423 33.9251 78.1887 34.861 76.8135 34.861C75.6911 34.861 74.9956 33.9767 74.7107 33.2315L73.1144 33.9595C73.5728 35.1728 74.7901 36.6637 76.8135 36.6637C78.9633 36.6637 80.7812 35.2767 80.7812 31.8967V23.6806H79.0423V24.4258ZM82.0457 32.2779H83.8794V18.827H82.0457V32.2779ZM86.5826 27.8406C86.5351 26.0724 87.8314 25.1713 88.764 25.1713C89.4916 25.1713 90.1078 25.5697 90.3129 26.1422L86.5826 27.8406ZM92.2734 26.3153C91.926 25.2923 90.8663 23.4032 88.7007 23.4032C86.5508 23.4032 84.7647 25.2579 84.7647 27.9792C84.7647 30.5447 86.5351 32.5553 88.9061 32.5553C90.8192 32.5553 91.926 31.2726 92.3842 30.5274L90.9615 29.4872C90.4875 30.25 89.839 30.7527 88.9061 30.7527C87.9736 30.7527 87.3098 30.2845 86.8827 29.3661L92.4627 26.8352L92.2734 26.3153ZM47.8164 24.8073V26.7486H52.0528C51.9263 27.8406 51.5943 28.6378 51.0884 29.1926C50.4721 29.8688 49.5078 30.614 47.8164 30.614C45.208 30.614 43.169 28.3087 43.169 25.4486C43.169 22.5886 45.208 20.283 47.8164 20.283C49.2234 20.283 50.2506 20.8898 51.0095 21.6698L52.2583 20.3006C51.1992 19.191 49.7922 18.3417 47.8164 18.3417C44.2437 18.3417 41.2403 21.5312 41.2403 25.4486C41.2403 29.3661 44.2437 32.5553 47.8164 32.5553C49.7451 32.5553 51.1992 31.8623 52.3372 30.5619C53.507 29.2792 53.8708 27.4766 53.8708 26.0207C53.8708 25.5697 53.8393 25.154 53.7757 24.8073H47.8164ZM58.6871 30.7527C57.4223 30.7527 56.3315 29.6086 56.3315 27.9792C56.3315 26.3325 57.4223 25.2058 58.6871 25.2058C59.9515 25.2058 61.0423 26.3325 61.0423 27.9792C61.0423 29.6087 59.9515 30.7527 58.6871 30.7527ZM58.6871 23.4032C56.3789 23.4032 54.4978 25.3272 54.4978 27.9792C54.4978 30.614 56.3789 32.5553 58.6871 32.5553C60.9949 32.5553 62.876 30.614 62.876 27.9792C62.876 25.3272 60.9949 23.4032 58.6871 23.4032ZM67.8253 30.7527C66.561 30.7527 65.4701 29.6086 65.4701 27.9792C65.4701 26.3325 66.561 25.2058 67.8254 25.2058C69.0899 25.2058 70.1807 26.3325 70.1807 27.9792C70.1807 29.6087 69.0899 30.7527 67.8254 30.7527H67.8253ZM67.8253 23.4032C65.5173 23.4032 63.6365 25.3272 63.6365 27.9792C63.6365 30.614 65.5173 32.5553 67.8254 32.5553C70.1332 32.5553 72.0144 30.614 72.0144 27.9792C72.0144 25.3272 70.1332 23.4032 67.8254 23.4032H67.8253Z" fill="white"/>
<path d="M13.3175 11.2681C13.0638 11.5181 12.9124 11.9352 12.9124 12.4888V12.3637V30.6325V30.5122C12.9124 31.0235 13.0423 31.4183 13.2623 31.6726L13.3184 31.7313V31.7316C13.4965 31.9071 13.7248 32.0003 13.9865 32C14.2422 32 14.5299 31.911 14.8335 31.7229L25.8077 24.9118L29.5773 22.572C30.0561 22.2749 30.3248 21.8917 30.3698 21.5013V21.4997C30.3248 21.1084 30.0561 20.7255 29.5774 20.4283L25.8074 18.0888L14.8335 11.2777C14.5293 11.0894 14.2414 11 13.985 11C13.7236 11 13.4956 11.0929 13.3176 11.2681H13.3175Z" fill="#00C1FF"/>
<path d="M13.2942 32L13.2413 31.9397C13.0345 31.6788 12.9124 31.2736 12.9124 30.7489V30.8724V12.129V12.2528C12.9124 11.6846 13.0547 11.2566 13.2933 11L22.1005 21.5003L13.2942 32Z" fill="url(#paint0_linear_31475_640)"/>
<path d="M25.4607 25L22.1004 21.4997L25.4604 18L29.517 20.4002C30.0321 20.705 30.3213 21.0979 30.3697 21.4994V21.501C30.3213 21.9015 30.0321 22.2947 29.517 22.5995L25.4607 25" fill="url(#paint1_linear_31475_640)"/>
<path d="M13.6004 32C13.3309 32.0002 13.0957 31.9115 12.9124 31.7443V31.7441L22.5593 22L25.7757 25.2493L14.4727 31.7361C14.16 31.9152 13.8637 32 13.6004 32Z" fill="url(#paint2_linear_31475_640)"/>
<path d="M22.5598 22L12.9124 11.2809C13.0957 11.0973 13.3306 11 13.5997 11C13.8638 11 14.1603 11.0936 14.4736 11.291L25.7757 18.4264L22.5598 22" fill="url(#paint3_linear_31475_640)"/>
<path d="M13.651 32C13.3843 32 13.1511 31.9095 12.9696 31.7391L12.9693 31.7394C12.9685 31.7386 12.9677 31.7379 12.9669 31.7372L12.9172 31.6867C12.9157 31.6852 12.9142 31.6833 12.9124 31.6815L12.9696 31.6219C13.1512 31.7923 13.3839 31.8828 13.6508 31.8825C13.9115 31.8825 14.2048 31.7961 14.5144 31.6135L25.704 25L25.7757 25.0746L25.7031 25.1175L14.5144 31.7306C14.2322 31.897 13.9639 31.9837 13.7215 31.9982C13.698 31.9994 13.6745 32 13.651 32" fill="url(#paint4_linear_31475_640)"/>
<path d="M25.8465 25L25.7757 24.9339L29.5718 22.9211C30.0539 22.6656 30.3245 22.3358 30.3698 22C30.3698 22.1232 30.3403 22.2465 30.2818 22.3664C30.1636 22.6081 29.927 22.8365 29.5718 23.0249L25.8465 25" fill="url(#paint5_linear_31475_640)"/>
<path d="M30.3698 22C30.3245 21.5512 30.0539 21.112 29.5718 20.7712L25.7757 18.0881L25.8465 18H25.8468L29.5718 20.6332C30.1033 21.0092 30.3695 21.5045 30.3698 22Z" fill="url(#paint6_linear_31475_640)"/>
<path d="M25.7037 18L14.5144 11.3868C14.2042 11.2039 13.9107 11.1172 13.6492 11.1172C13.3827 11.1172 13.1502 11.2074 12.9687 11.3775L12.9124 11.3186C12.93 11.2992 12.9482 11.2805 12.9672 11.2625C12.9678 11.2619 12.9687 11.2612 12.9693 11.2606C13.1494 11.0918 13.3794 11.0016 13.6436 11H13.6492C13.9107 11 14.2042 11.0868 14.5144 11.2697L25.7757 17.9252L25.7754 17.9254L25.7037 18Z" fill="url(#paint7_linear_31475_640)"/>
<defs>
<linearGradient id="paint0_linear_31475_640" x1="18.5407" y1="11.9309" x2="9.63908" y2="19.421" gradientUnits="userSpaceOnUse">
<stop stop-color="#00A0FF"/>
<stop offset="0.00657" stop-color="#00A1FF"/>
<stop offset="0.2601" stop-color="#00BEFF"/>
<stop offset="0.5122" stop-color="#00D2FF"/>
<stop offset="0.7604" stop-color="#00DFFF"/>
<stop offset="1" stop-color="#00E3FF"/>
</linearGradient>
<linearGradient id="paint1_linear_31475_640" x1="30.9973" y1="21.4392" x2="11.3119" y2="21.4392" gradientUnits="userSpaceOnUse">
<stop stop-color="#FFE000"/>
<stop offset="0.4087" stop-color="#FFBD00"/>
<stop offset="0.7754" stop-color="#FFA500"/>
<stop offset="1" stop-color="#FF9C00"/>
</linearGradient>
<linearGradient id="paint2_linear_31475_640" x1="24.0681" y1="25.0893" x2="9.86124" y2="39.097" gradientUnits="userSpaceOnUse">
<stop stop-color="#FF3A44"/>
<stop offset="1" stop-color="#C31162"/>
</linearGradient>
<linearGradient id="paint3_linear_31475_640" x1="10.4259" y1="9.69169" x2="17.351" y2="15.9082" gradientUnits="userSpaceOnUse">
<stop stop-color="#32A071"/>
<stop offset="0.0685" stop-color="#2DA771"/>
<stop offset="0.4762" stop-color="#15CF74"/>
<stop offset="0.8009" stop-color="#06E775"/>
<stop offset="1" stop-color="#00F076"/>
</linearGradient>
<linearGradient id="paint4_linear_31475_640" x1="24.0066" y1="27.1348" x2="12.4134" y2="38.3158" gradientUnits="userSpaceOnUse">
<stop stop-color="#CC2E36"/>
<stop offset="1" stop-color="#9C0E4E"/>
</linearGradient>
<linearGradient id="paint5_linear_31475_640" x1="30.9572" y1="21.9994" x2="12.5345" y2="21.9994" gradientUnits="userSpaceOnUse">
<stop stop-color="#E0C500"/>
<stop offset="0.4087" stop-color="#E0A600"/>
<stop offset="0.7754" stop-color="#E09100"/>
<stop offset="1" stop-color="#E08900"/>
</linearGradient>
<linearGradient id="paint6_linear_31475_640" x1="30.9571" y1="22.0009" x2="12.5357" y2="22.0009" gradientUnits="userSpaceOnUse">
<stop stop-color="#FFE840"/>
<stop offset="0.4087" stop-color="#FFCE40"/>
<stop offset="0.7754" stop-color="#FFBC40"/>
<stop offset="1" stop-color="#FFB540"/>
</linearGradient>
<linearGradient id="paint7_linear_31475_640" x1="10.4931" y1="12.0056" x2="15.6698" y2="16.9985" gradientUnits="userSpaceOnUse">
<stop stop-color="#65B895"/>
<stop offset="0.0685" stop-color="#62BD95"/>
<stop offset="0.4762" stop-color="#50DB97"/>
<stop offset="0.8009" stop-color="#44ED98"/>
<stop offset="1" stop-color="#40F498"/>
</linearGradient>
</defs>
</svg>
