<svg width="24" height="24" viewBox="0 0 24 24" fill="none" xmlns="http://www.w3.org/2000/svg">
<g clip-path="url(#clip0_31129_1553)">
<path d="M11.5179 0C5.15199 0 0 5.36705 0 12C0 18.6324 5.15145 24 11.5179 24C17.8839 24 23.0359 18.633 23.0359 12C23.0359 5.36761 17.8844 0 11.5179 0ZM17.615 8.7218L10.2361 16.4095C9.93635 16.7218 9.44998 16.7219 9.15016 16.4095L5.4209 12.5242C5.12103 12.2118 5.12103 11.7052 5.4209 11.3928C5.72073 11.0804 6.20696 11.0804 6.50683 11.3928L9.69316 14.7125L16.5292 7.59037C16.829 7.27795 17.3152 7.27795 17.6151 7.59037C17.9149 7.90289 17.9149 8.40938 17.615 8.7218Z" fill="#00AE1C"/>
</g>
<defs>
<clipPath id="clip0_31129_1553">
<rect width="23.0359" height="24" fill="white"/>
</clipPath>
</defs>
</svg>
