<svg width="171" height="48" viewBox="0 0 171 48" fill="none" xmlns="http://www.w3.org/2000/svg">
<path d="M0.750595 1.42471C3.74018 1.42471 5.5332 0.764784 8.40592 1.42471C13.4245 2.57757 13.0372 7.37083 17.8625 8.96412C22.2523 10.4136 25.4227 8.36901 30.0209 9.32314C40.3731 11.4712 39.3701 22.6337 49.8347 24.402C53.9636 25.0997 56.5477 23.5859 60.6422 24.402C69.3282 26.1332 68.2895 39.4085 76.8535 37.3267C80.9046 36.3419 80.9865 32.7529 84.9592 31.5824C94.7597 28.6947 94.1949 48.35 104.323 46.3022C110.23 45.1077 109.791 39.2025 115.58 37.6857C119.757 36.5915 122.48 38.1437 126.838 37.6857C146.812 35.5868 143.679 10.2207 163.764 8.96412C166.218 8.81056 170.068 8.96412 170.068 8.96412" stroke="url(#paint0_linear_31460_635)" stroke-opacity="0.2"/>
<path d="M60.6024 24.1928C69.2826 25.9405 68.2446 39.3417 76.8029 37.2402C80.8514 36.246 80.9332 32.623 84.9032 31.4413C94.6972 28.5262 94.1328 48.368 104.254 46.3008C110.157 45.095 109.718 39.1338 115.504 37.6026C119.678 36.498 122.399 38.065 126.754 37.6026C137.122 36.5021 141.26 29.0653 145.655 21.9933" stroke="url(#paint1_linear_31460_635)" stroke-width="2" stroke-linecap="round"/>
<defs>
<linearGradient id="paint0_linear_31460_635" x1="0.750595" y1="23.7918" x2="170.068" y2="23.7918" gradientUnits="userSpaceOnUse">
<stop stop-color="#00F5A0"/>
<stop offset="1" stop-color="#00D9F5"/>
</linearGradient>
<linearGradient id="paint1_linear_31460_635" x1="60.6024" y1="34.2227" x2="145.655" y2="34.2227" gradientUnits="userSpaceOnUse">
<stop stop-color="#00F5A0"/>
<stop offset="1" stop-color="#00D9F5"/>
</linearGradient>
</defs>
</svg>
