<svg width="43" height="40" viewBox="0 0 43 40" fill="none" xmlns="http://www.w3.org/2000/svg">
<ellipse cx="21.0149" cy="20" rx="21.0149" ry="20" fill="#DFFFF0"/>
<path d="M27.2731 13.0589C26.9 13.4157 26.6889 13.9095 26.6889 14.4258V25.4683C26.6889 27.1331 28.6845 27.9858 29.8876 26.835C30.2606 26.4782 30.4715 25.9845 30.4715 25.4683V14.4258C30.4715 12.7612 28.4762 11.9084 27.2731 13.0589ZM19.1238 25.4689C19.1238 27.1336 21.119 27.9863 22.3221 26.8358C22.6953 26.479 22.9063 25.9852 22.9063 25.4689V14.4253C22.9063 12.7607 20.9111 11.9079 19.708 13.0584C19.3348 13.4152 19.1238 13.909 19.1238 14.4253V25.4689ZM11.5581 25.4689C11.5581 27.1335 13.5534 27.9863 14.7565 26.8359C15.1297 26.479 15.3407 25.9852 15.3407 25.4689V14.4253C15.3407 12.7607 13.3455 11.9079 12.1423 13.0584C11.7692 13.4152 11.5581 13.909 11.5581 14.4253V25.4689Z" fill="#00AC5B"/>
</svg>
