<svg width="125" height="32" viewBox="0 0 125 32" fill="none" xmlns="http://www.w3.org/2000/svg">
<path d="M16 0C12.8355 -3.77363e-08 9.74206 0.938383 7.11088 2.69649C4.47969 4.45459 2.42893 6.95345 1.21793 9.87706C0.00692588 12.8007 -0.309928 16.0177 0.307435 19.1214C0.924798 22.2251 2.44865 25.0761 4.68629 27.3137C6.92393 29.5513 9.77485 31.0752 12.8786 31.6926C15.9822 32.3099 19.1993 31.9931 22.1229 30.7821C25.0465 29.5711 27.5454 27.5203 29.3035 24.8891C31.0616 22.2579 32 19.1645 32 16L24 16C24 17.5823 23.5308 19.129 22.6518 20.4446C21.7727 21.7602 20.5233 22.7855 19.0615 23.391C17.5997 23.9965 15.9911 24.155 14.4393 23.8463C12.8874 23.5376 11.462 22.7757 10.3431 21.6569C9.22432 20.538 8.4624 19.1126 8.15372 17.5607C7.84504 16.0089 8.00346 14.4003 8.60896 12.9385C9.21447 11.4767 10.2398 10.2273 11.5554 9.34824C12.871 8.46919 14.4177 8 16 8L16 0Z" fill="white"/>
<path d="M16 0C13.8989 -2.5056e-08 11.8183 0.413852 9.87706 1.21793C7.93586 2.022 6.17203 3.20055 4.68629 4.68629C3.20055 6.17203 2.022 7.93586 1.21793 9.87707C0.413852 11.8183 -3.17265e-07 13.8989 0 16L8 16C8 14.9494 8.20693 13.9091 8.60896 12.9385C9.011 11.9679 9.60028 11.086 10.3431 10.3431C11.086 9.60028 11.9679 9.011 12.9385 8.60896C13.9091 8.20693 14.9494 8 16 8L16 0Z" fill="#5CE1E6"/>
<circle cx="16" cy="16" r="5" fill="#5CE1E6"/>
<path d="M21 16C21 15.3434 20.8707 14.6932 20.6194 14.0866C20.3681 13.48 19.9998 12.9288 19.5355 12.4645C19.0712 12.0002 18.52 11.6319 17.9134 11.3806C17.3068 11.1293 16.6566 11 16 11C15.3434 11 14.6932 11.1293 14.0866 11.3806C13.48 11.6319 12.9288 12.0002 12.4645 12.4645C12.0002 12.9288 11.6319 13.48 11.3806 14.0866C11.1293 14.6932 11 15.3434 11 16L16 16H21Z" fill="white"/>
<path d="M53.988 22.5H51.468L45.762 13.878V22.5H43.242V9.918H45.762L51.468 18.558V9.918H53.988V22.5ZM65.7483 17.298C65.7483 17.658 65.7243 17.982 65.6763 18.27H58.3863C58.4463 18.99 58.6983 19.554 59.1423 19.962C59.5863 20.37 60.1323 20.574 60.7803 20.574C61.7163 20.574 62.3823 20.172 62.7783 19.368H65.4963C65.2083 20.328 64.6563 21.12 63.8403 21.744C63.0243 22.356 62.0223 22.662 60.8343 22.662C59.8743 22.662 59.0103 22.452 58.2423 22.032C57.4863 21.6 56.8923 20.994 56.4603 20.214C56.0403 19.434 55.8303 18.534 55.8303 17.514C55.8303 16.482 56.0403 15.576 56.4603 14.796C56.8803 14.016 57.4683 13.416 58.2243 12.996C58.9803 12.576 59.8503 12.366 60.8343 12.366C61.7823 12.366 62.6283 12.57 63.3723 12.978C64.1283 13.386 64.7103 13.968 65.1183 14.724C65.5383 15.468 65.7483 16.326 65.7483 17.298ZM63.1383 16.578C63.1263 15.93 62.8923 15.414 62.4363 15.03C61.9803 14.634 61.4223 14.436 60.7623 14.436C60.1383 14.436 59.6103 14.628 59.1783 15.012C58.7583 15.384 58.5003 15.906 58.4043 16.578H63.1383ZM72.0157 22.662C71.0557 22.662 70.1917 22.452 69.4237 22.032C68.6557 21.6 68.0497 20.994 67.6057 20.214C67.1737 19.434 66.9577 18.534 66.9577 17.514C66.9577 16.494 67.1797 15.594 67.6237 14.814C68.0797 14.034 68.6977 13.434 69.4777 13.014C70.2577 12.582 71.1277 12.366 72.0877 12.366C73.0477 12.366 73.9177 12.582 74.6977 13.014C75.4777 13.434 76.0897 14.034 76.5337 14.814C76.9897 15.594 77.2177 16.494 77.2177 17.514C77.2177 18.534 76.9837 19.434 76.5157 20.214C76.0597 20.994 75.4357 21.6 74.6437 22.032C73.8637 22.452 72.9877 22.662 72.0157 22.662ZM72.0157 20.466C72.4717 20.466 72.8977 20.358 73.2937 20.142C73.7017 19.914 74.0257 19.578 74.2657 19.134C74.5057 18.69 74.6257 18.15 74.6257 17.514C74.6257 16.566 74.3737 15.84 73.8697 15.336C73.3777 14.82 72.7717 14.562 72.0517 14.562C71.3317 14.562 70.7257 14.82 70.2337 15.336C69.7537 15.84 69.5137 16.566 69.5137 17.514C69.5137 18.462 69.7477 19.194 70.2157 19.71C70.6957 20.214 71.2957 20.466 72.0157 20.466Z" fill="white"/>
<path d="M86.1942 16.056C86.9022 16.188 87.4842 16.542 87.9402 17.118C88.3962 17.694 88.6242 18.354 88.6242 19.098C88.6242 19.77 88.4562 20.364 88.1202 20.88C87.7962 21.384 87.3222 21.78 86.6982 22.068C86.0742 22.356 85.3362 22.5 84.4842 22.5H79.0662V9.936H84.2502C85.1022 9.936 85.8342 10.074 86.4462 10.35C87.0702 10.626 87.5382 11.01 87.8502 11.502C88.1742 11.994 88.3362 12.552 88.3362 13.176C88.3362 13.908 88.1382 14.52 87.7422 15.012C87.3582 15.504 86.8422 15.852 86.1942 16.056ZM81.5862 15.12H83.8902C84.4902 15.12 84.9522 14.988 85.2762 14.724C85.6002 14.448 85.7622 14.058 85.7622 13.554C85.7622 13.05 85.6002 12.66 85.2762 12.384C84.9522 12.108 84.4902 11.97 83.8902 11.97H81.5862V15.12ZM84.1242 20.448C84.7362 20.448 85.2102 20.304 85.5462 20.016C85.8942 19.728 86.0682 19.32 86.0682 18.792C86.0682 18.252 85.8882 17.832 85.5282 17.532C85.1682 17.22 84.6822 17.064 84.0702 17.064H81.5862V20.448H84.1242ZM89.9846 17.478C89.9846 16.47 90.1826 15.576 90.5786 14.796C90.9866 14.016 91.5326 13.416 92.2166 12.996C92.9126 12.576 93.6866 12.366 94.5386 12.366C95.2826 12.366 95.9306 12.516 96.4826 12.816C97.0466 13.116 97.4966 13.494 97.8326 13.95V12.528H100.371V22.5H97.8326V21.042C97.5086 21.51 97.0586 21.9 96.4826 22.212C95.9186 22.512 95.2646 22.662 94.5206 22.662C93.6806 22.662 92.9126 22.446 92.2166 22.014C91.5326 21.582 90.9866 20.976 90.5786 20.196C90.1826 19.404 89.9846 18.498 89.9846 17.478ZM97.8326 17.514C97.8326 16.902 97.7126 16.38 97.4726 15.948C97.2326 15.504 96.9086 15.168 96.5006 14.94C96.0926 14.7 95.6546 14.58 95.1866 14.58C94.7186 14.58 94.2866 14.694 93.8906 14.922C93.4946 15.15 93.1706 15.486 92.9186 15.93C92.6786 16.362 92.5586 16.878 92.5586 17.478C92.5586 18.078 92.6786 18.606 92.9186 19.062C93.1706 19.506 93.4946 19.848 93.8906 20.088C94.2986 20.328 94.7306 20.448 95.1866 20.448C95.6546 20.448 96.0926 20.334 96.5006 20.106C96.9086 19.866 97.2326 19.53 97.4726 19.098C97.7126 18.654 97.8326 18.126 97.8326 17.514ZM108.358 12.384C109.546 12.384 110.506 12.762 111.238 13.518C111.97 14.262 112.336 15.306 112.336 16.65V22.5H109.816V16.992C109.816 16.2 109.618 15.594 109.222 15.174C108.826 14.742 108.286 14.526 107.602 14.526C106.906 14.526 106.354 14.742 105.946 15.174C105.55 15.594 105.352 16.2 105.352 16.992V22.5H102.832V12.528H105.352V13.77C105.688 13.338 106.114 13.002 106.63 12.762C107.158 12.51 107.734 12.384 108.358 12.384ZM120.636 22.5L117.252 18.252V22.5H114.732V9.18H117.252V16.758L120.6 12.528H123.876L119.484 17.532L123.912 22.5H120.636Z" fill="#5CE1E6"/>
</svg>
