<svg width="43" height="40" viewBox="0 0 43 40" fill="none" xmlns="http://www.w3.org/2000/svg">
<ellipse cx="21.0149" cy="20" rx="21.0149" ry="20" fill="#FDFDFE"/>
<path d="M9.44556 23.8061C8.95921 23.8877 8.4643 23.9121 7.95235 23.9772L6.39082 19.6098V24.1647C5.90447 24.2136 5.46077 24.2788 5 24.3439V16H6.29701L8.07179 20.7343V16H9.44556V23.8061ZM12.1334 19.0556C12.6625 19.0556 13.4731 19.0312 13.9594 19.0312V20.3349C13.3536 20.3349 12.6454 20.3349 12.1334 20.3594V22.2987C12.9355 22.2498 13.7376 22.1846 14.5481 22.1601V23.4149L10.7681 23.7002V16H14.5481V17.3037H12.1334V19.0556ZM19.6251 17.3038H18.2087V23.301C17.7479 23.301 17.2872 23.301 16.8435 23.3172V17.3038H15.4271V16H19.6252L19.6251 17.3038ZM21.8436 18.966H23.7123V20.2697H21.8436V23.2276H20.5039V16H24.3182V17.3037H21.8436V18.966ZM26.5367 22.0868C27.3132 22.1031 28.0981 22.1602 28.8576 22.2009V23.4884C27.6374 23.415 26.4172 23.3417 25.1714 23.3172V16H26.5367V22.0868ZM30.0095 23.578C30.4447 23.6025 30.9054 23.6269 31.3491 23.6757V16H30.0095V23.578ZM37.3306 16L35.5985 19.9683L37.3306 24.3439C36.8186 24.2788 36.3067 24.1891 35.7947 24.1076L34.8135 21.6958L33.8152 23.9121C33.3202 23.8306 32.8424 23.8061 32.3476 23.7409L34.1053 19.9193L32.5182 16H33.9857L34.8817 18.1919L35.8374 16H37.3306Z" fill="#D81F26"/>
</svg>
