<svg width="20" height="21" viewBox="0 0 20 21" fill="none" xmlns="http://www.w3.org/2000/svg">
<path d="M6.11002 19.7626L6.49651 17.5202L5.63559 17.5019H1.5246L4.38153 0.954657C4.39003 0.904097 4.41814 0.858013 4.46074 0.824805C4.50333 0.791597 4.55757 0.773476 4.61357 0.773746H11.5453C13.8465 0.773746 15.4346 1.21117 16.2637 2.07455C16.6524 2.47957 16.9 2.90282 17.0197 3.3686C17.1453 3.85733 17.1476 4.44124 17.0249 5.15341L17.016 5.20539V5.66172L17.4047 5.86288C17.7015 6.00021 17.9682 6.18598 18.1917 6.41101C18.5243 6.75731 18.7393 7.19743 18.8302 7.71924C18.9241 8.2559 18.893 8.89448 18.7393 9.61745C18.562 10.4491 18.2753 11.1734 17.888 11.7661C17.5464 12.2971 17.087 12.7569 16.5394 13.1162C16.025 13.4497 15.4139 13.7028 14.7229 13.8648C14.0534 14.0241 13.29 14.1044 12.4528 14.1044H11.9133C11.5275 14.1044 11.1529 14.2314 10.8588 14.4588C10.5651 14.6888 10.3702 15.0064 10.309 15.3553L10.2683 15.5571L9.58548 19.5095L9.55445 19.6546C9.54632 19.7005 9.53228 19.7235 9.51159 19.739C9.49154 19.754 9.46653 19.7623 9.44064 19.7626H6.11002Z" fill="#253B80"/>
<path d="M17.7728 5.25793C17.7521 5.37877 17.7285 5.5023 17.7019 5.62921C16.7877 9.91639 13.6603 11.3974 9.6661 11.3974H7.63241C7.14393 11.3974 6.73232 11.7214 6.6562 12.1616L5.61497 18.1937L5.32011 19.9036C5.30836 19.9714 5.31285 20.0408 5.33326 20.1069C5.35366 20.173 5.3895 20.2342 5.43832 20.2865C5.48713 20.3387 5.54775 20.3806 5.61601 20.4094C5.68426 20.4381 5.75854 20.4531 5.83371 20.4531H9.44071C9.86785 20.4531 10.2307 20.1696 10.2979 19.7848L10.3334 19.6174L11.0125 15.6806L11.0561 15.4645C11.1226 15.0784 11.4862 14.7949 11.9134 14.7949H12.4528C15.9475 14.7949 18.6832 13.4988 19.4828 9.7483C19.8168 8.18154 19.6439 6.87331 18.7601 5.95323C18.48 5.6686 18.1454 5.43299 17.7728 5.25793Z" fill="#179BD7"/>
<path d="M16.8166 4.9097C16.5247 4.83257 16.2278 4.77237 15.9276 4.72946C15.3344 4.64619 14.7349 4.60624 14.1348 4.60998H8.70177C8.49501 4.60984 8.29501 4.67726 8.13792 4.80008C7.98084 4.92289 7.87704 5.09299 7.84528 5.27962L6.6895 11.9666L6.65625 12.1617C6.69226 11.9488 6.81048 11.7547 6.98954 11.6146C7.16859 11.4744 7.39665 11.3974 7.63245 11.3975H9.66615C13.6604 11.3975 16.7878 9.9158 17.7019 5.62929C17.7293 5.50239 17.7522 5.37885 17.7729 5.25802C17.5316 5.14247 17.2802 5.0456 17.0213 4.96843C16.9534 4.94785 16.8852 4.92827 16.8166 4.9097Z" fill="#222D65"/>
<path d="M7.84523 5.2796C7.87672 5.09291 7.98046 4.92274 8.13762 4.79998C8.29479 4.67723 8.49494 4.61004 8.70172 4.61063H14.1348C14.7784 4.61063 15.3792 4.64911 15.9275 4.73011C16.2986 4.78338 16.6645 4.86305 17.022 4.9684C17.2917 5.05008 17.5422 5.14661 17.7735 5.258C18.0455 3.67367 17.7713 2.59496 16.8335 1.61818C15.7997 0.542836 13.9338 0.0824585 11.5461 0.0824585H4.61437C4.12664 0.0824585 3.71059 0.406478 3.63521 0.84728L0.747985 17.5647C0.734537 17.6423 0.739653 17.7216 0.762983 17.7973C0.786312 17.8729 0.827301 17.943 0.883129 18.0028C0.938957 18.0626 1.0083 18.1106 1.08639 18.1436C1.16448 18.1766 1.24946 18.1937 1.33548 18.1938H5.61496L6.68945 11.9665L7.84523 5.2796Z" fill="#253B80"/>
</svg>
