<svg width="81" height="81" viewBox="0 0 81 81" fill="none" xmlns="http://www.w3.org/2000/svg">
<circle cx="40.2639" cy="40.8195" r="40" fill="white"/>
<path d="M31.7396 60.9224L32.4971 56.1261L30.8098 56.0871H22.7523L28.3518 20.695C28.3685 20.5869 28.4236 20.4883 28.5071 20.4173C28.5906 20.3462 28.6969 20.3075 28.8066 20.3081H42.3926C46.9029 20.3081 50.0155 21.2436 51.6406 23.0903C52.4025 23.9566 52.8877 24.8618 53.1224 25.8581C53.3686 26.9034 53.3729 28.1523 53.1325 29.6755L53.1151 29.7867V30.7627L53.877 31.1929C54.4586 31.4867 54.9814 31.884 55.4195 32.3653C56.0713 33.106 56.4928 34.0473 56.6709 35.1634C56.8549 36.3112 56.794 37.6771 56.4928 39.2234C56.1452 41.0022 55.5832 42.5514 54.8242 43.8191C54.1546 44.9547 53.2542 45.9382 52.1809 46.7067C51.1728 47.4199 49.975 47.9613 48.6207 48.3079C47.3085 48.6486 45.8123 48.8204 44.1712 48.8204H43.1139C42.3579 48.8204 41.6235 49.0918 41.0471 49.5784C40.4714 50.0702 40.0895 50.7496 39.9694 51.4958L39.8898 51.9275L38.5515 60.381L38.4906 60.6914C38.4747 60.7896 38.4472 60.8387 38.4066 60.8719C38.3673 60.9039 38.3183 60.9217 38.2676 60.9224H31.7396Z" fill="#253B80"/>
<path d="M54.6038 29.8769C54.5632 30.1356 54.5169 30.4001 54.4648 30.6718C52.6739 39.851 46.5471 43.022 38.7222 43.022H34.738C33.7811 43.022 32.9747 43.7158 32.8256 44.6581L30.7857 57.5735L30.2081 61.2344C30.1851 61.3797 30.1938 61.5281 30.2338 61.6696C30.2738 61.8111 30.344 61.9423 30.4396 62.0541C30.5353 62.1659 30.654 62.2557 30.7878 62.3173C30.9215 62.3789 31.067 62.4109 31.2142 62.4109H38.2806C39.1174 62.4109 39.8282 61.8039 39.96 60.9801L40.0295 60.6216L41.3599 52.1925L41.4453 51.73C41.5756 50.9033 42.2879 50.2963 43.1247 50.2963H44.1816C51.0279 50.2963 56.3874 47.5213 57.9538 39.4911C58.6082 36.1365 58.2694 33.3355 56.5379 31.3656C55.9891 30.7562 55.3337 30.2517 54.6038 29.8769Z" fill="#179BD7"/>
<path d="M52.7651 29.2428C52.19 29.0778 51.605 28.949 51.0135 28.8572C49.8449 28.679 48.6637 28.5935 47.4814 28.6015H36.7772C36.3698 28.6012 35.9758 28.7454 35.6663 29.0083C35.3568 29.2711 35.1523 29.6351 35.0897 30.0345L32.8126 44.3442L32.7471 44.7616C32.818 44.3061 33.0509 43.8908 33.4037 43.5909C33.7565 43.2909 34.2058 43.1262 34.6704 43.1264H38.6772C46.5467 43.1264 52.7083 39.9556 54.5093 30.7827C54.5632 30.5112 54.6083 30.2468 54.6491 29.9882C54.1738 29.741 53.6785 29.5337 53.1684 29.3685C53.0346 29.3245 52.9002 29.2826 52.7651 29.2428Z" fill="#222D65"/>
<path d="M35.196 29.9859C35.2577 29.5848 35.4612 29.2191 35.7694 28.9554C36.0776 28.6916 36.4701 28.5473 36.8756 28.5486H47.5298C48.792 28.5486 49.9701 28.6312 51.0454 28.8053C51.773 28.9197 52.4906 29.0909 53.1916 29.3173C53.7206 29.4927 54.2118 29.7001 54.6654 29.9395C55.1987 26.5355 54.6611 24.2178 52.8221 22.1191C50.7947 19.8087 47.1356 18.8195 42.4534 18.8195H28.8603C27.9038 18.8195 27.0879 19.5157 26.9401 20.4628L21.2783 56.381C21.2519 56.5478 21.2619 56.7183 21.3077 56.8808C21.3534 57.0433 21.4338 57.194 21.5433 57.3224C21.6528 57.4509 21.7888 57.5541 21.9419 57.6249C22.095 57.6957 22.2617 57.7325 22.4304 57.7328H30.8224L32.9295 44.3532L35.196 29.9859Z" fill="#253B80"/>
</svg>
