<svg width="38" height="34" viewBox="0 0 38 34" fill="none" xmlns="http://www.w3.org/2000/svg">
<rect x="0.937622" y="2.28882e-05" width="36.2768" height="34" rx="10" fill="#00030C"/>
<path fill-rule="evenodd" clip-rule="evenodd" d="M14.9251 8C15.3732 8 15.7371 8.33438 15.7371 8.74722C15.7371 9.15907 15.3743 9.49345 14.9251 9.49345L13.187 9.49444C11.7445 9.4964 10.5708 10.576 10.5708 11.9028V13.762C10.5708 14.1739 10.2059 14.5092 9.75778 14.5092C9.30966 14.5092 8.94582 14.1739 8.94582 13.762V11.9028C8.94582 9.75331 10.8482 8.00294 13.1859 8.00098L14.924 8H14.9251ZM22.5783 8.00029H24.278C26.6221 8.00029 28.5277 9.75165 28.5277 11.906V13.7623C28.5277 14.1742 28.1649 14.5095 27.7158 14.5095C27.2676 14.5095 26.9038 14.1742 26.9038 13.7623V11.906C26.9038 10.5754 25.7259 9.49277 24.278 9.49277H22.5783C22.1302 9.49277 21.7664 9.15936 21.7664 8.74751C21.7664 8.33468 22.1302 8.00029 22.5783 8.00029ZM21.6841 11.7427H15.7902C14.4415 11.7554 13.3575 12.7684 13.3692 14.0088V15.2542C13.3724 15.3993 13.4994 15.518 13.6573 15.5229H23.8148C23.9738 15.519 24.1008 15.4003 24.1061 15.2542V14.0088C24.1072 13.4097 23.8554 12.8341 23.4008 12.4055C22.9495 11.9809 22.3296 11.7427 21.6841 11.7427ZM7.81303 17.0412H29.6613C30.1094 17.0412 30.4732 17.3756 30.4732 17.7885C30.4732 18.2003 30.1094 18.5337 29.6613 18.5337H28.5281V22.0933C28.5281 24.2486 26.6215 26 24.2784 26H22.5787C22.1296 26 21.7657 25.6656 21.7657 25.2528C21.7657 24.8409 22.1296 24.5065 22.5787 24.5065H24.2784C25.7263 24.5065 26.9042 23.4249 26.9042 22.0933V18.5337H24.1056V19.5251C24.1162 20.7656 23.0333 21.7795 21.6836 21.7913H15.7897C14.441 21.7795 13.358 20.7656 13.3687 19.5251V18.5337H10.5701V22.0972C10.5701 23.424 11.7448 24.5036 13.1884 24.5056L14.9254 24.5065C15.3735 24.5065 15.7374 24.8409 15.7374 25.2528C15.7363 25.6656 15.3735 26 14.9243 26L13.1863 25.999C10.8485 25.9971 8.94508 24.2467 8.94508 22.0972V18.5337H7.81303C7.3649 18.5337 7 18.2003 7 17.7885C7 17.3756 7.3649 17.0412 7.81303 17.0412Z" fill="#00F6FF"/>
</svg>
