<svg width="33" height="32" viewBox="0 0 33 32" fill="none" xmlns="http://www.w3.org/2000/svg">
<path d="M31.2269 0.931172C30.4489 0.109757 29.2975 -0.196261 28.2239 0.125863L3.18806 7.61524C2.05531 7.93897 1.25242 8.8683 1.03614 10.0489C0.815186 11.2504 1.58695 12.7757 2.59523 13.4135L10.4234 18.3629C11.2263 18.8702 12.2626 18.743 12.927 18.0537L21.891 8.77488C22.3422 8.2917 23.0891 8.2917 23.5404 8.77488C23.9916 9.24196 23.9916 9.99895 23.5404 10.4821L14.5608 19.7625C13.8948 20.4503 13.7703 21.5213 14.2605 22.3524L19.0436 30.486C19.6037 31.4524 20.5684 32 21.6265 32C21.751 32 21.891 32 22.0155 31.9839C23.2292 31.8228 24.1939 30.9692 24.5517 29.7612L31.9738 4.03967C32.3006 2.94445 32.0049 1.75259 31.2269 0.931172" fill="#00F6FF"/>
</svg>
