<svg width="26" height="33" viewBox="0 0 26 33" fill="none" xmlns="http://www.w3.org/2000/svg">
<path fill-rule="evenodd" clip-rule="evenodd" d="M12.3204 32.3619C12.485 32.4544 12.6691 32.5015 12.8531 32.4999C13.0371 32.4984 13.2197 32.4497 13.3858 32.3556L18.6884 29.3039C20.1921 28.441 21.3697 27.4761 22.2884 26.3527C24.2859 23.9051 25.3766 20.7813 25.3572 17.5602L25.2943 6.93517C25.2883 5.71138 24.5417 4.61938 23.4375 4.22243L13.5728 0.659303C12.9788 0.442785 12.3279 0.447492 11.7444 0.670286L1.91712 4.3605C0.818882 4.77314 0.0857262 5.87298 0.0917112 7.09834L0.154553 17.7155C0.174004 20.9413 1.30217 24.051 3.33256 26.4735C4.26023 27.5812 5.44824 28.532 6.96841 29.3808L12.3204 32.3619ZM10.9167 19.8743C11.1381 20.1034 11.4254 20.2163 11.7127 20.2132C12 20.2116 12.2857 20.0955 12.5042 19.8633L18.2991 13.713C18.7345 13.2501 18.73 12.5064 18.2901 12.0498C17.8488 11.5933 17.138 11.5964 16.7026 12.0593L11.6962 17.3718L9.64639 15.2505C9.205 14.794 8.49578 14.7987 8.05888 15.2615C7.62348 15.7244 7.62797 16.4681 8.06936 16.9246L10.9167 19.8743Z" fill="#00F6FF"/>
</svg>
