<svg width="30" height="26" viewBox="0 0 30 26" fill="none" xmlns="http://www.w3.org/2000/svg">
<path d="M6.71269 10.6524C6.70794 10.6133 6.66994 10.5959 6.64143 10.5959C6.61293 10.5959 5.99061 10.5526 5.99061 10.5526C5.99061 10.5526 5.55832 10.1577 5.50606 10.1186C5.45856 10.0752 5.3683 10.0882 5.33029 10.0969C5.32554 10.0969 5.23528 10.1229 5.08802 10.1663C4.94075 9.78013 4.68898 9.42864 4.23768 9.42864H4.19492C4.07141 9.2811 3.90989 9.21167 3.77688 9.21167C2.73177 9.21167 2.22822 10.405 2.07145 11.0125C1.66291 11.1297 1.37313 11.2078 1.33987 11.2208C1.11185 11.2859 1.1071 11.2903 1.07859 11.4855C1.05484 11.6331 0.461029 15.8293 0.461029 15.8293L5.08327 16.6191L7.59153 16.1244C7.59628 16.1157 6.71744 10.6914 6.71269 10.6524V10.6524ZM4.83149 10.2271C4.71748 10.2575 4.57971 10.2965 4.44195 10.3399V10.2618C4.44195 10.0275 4.4087 9.83655 4.34694 9.68467C4.58447 9.7107 4.73173 9.94937 4.83149 10.2271ZM4.05716 9.7324C4.11892 9.87994 4.16167 10.0882 4.16167 10.3746V10.418C3.90514 10.4918 3.63436 10.5656 3.35408 10.648C3.51085 10.1013 3.81013 9.83221 4.05716 9.7324ZM3.75313 9.46336C3.80063 9.46336 3.84814 9.48071 3.88614 9.50675C3.54886 9.64995 3.19257 10.0101 3.0453 10.7391C2.82203 10.8042 2.60826 10.8606 2.40398 10.9214C2.575 10.366 3.00255 9.46336 3.75313 9.46336Z" fill="#95BF47"/>
<path d="M6.64147 10.5872C6.61297 10.5872 5.99066 10.5438 5.99066 10.5438C5.99066 10.5438 5.55836 10.149 5.50611 10.1099C5.4871 10.0925 5.46335 10.0839 5.44435 10.0839L5.09756 16.6191L7.60582 16.1244C7.60582 16.1244 6.72698 10.6914 6.72223 10.6523C6.70323 10.6133 6.66998 10.5959 6.64147 10.5872V10.5872Z" fill="#5E8E3E"/>
<path d="M4.23776 11.8543L3.93373 12.6918C3.93373 12.6918 3.6582 12.5573 3.33041 12.5573C2.84111 12.5573 2.81735 12.8394 2.81735 12.9088C2.81735 13.2907 3.90997 13.4382 3.90997 14.3365C3.90997 15.0438 3.42067 15.4994 2.76035 15.4994C1.96226 15.4994 1.56322 15.0481 1.56322 15.0481L1.77699 14.4059C1.77699 14.4059 2.19504 14.7357 2.54658 14.7357C2.77935 14.7357 2.87436 14.5708 2.87436 14.4493C2.87436 13.9503 1.98126 13.9286 1.98126 13.1041C1.98126 12.4141 2.52282 11.7458 3.62019 11.7458C4.02874 11.7415 4.23776 11.8543 4.23776 11.8543V11.8543Z" fill="white"/>
<path d="M10.5179 13.4295C10.2661 13.308 10.1378 13.1995 10.1378 13.0563C10.1378 12.8741 10.3183 12.7569 10.5986 12.7569C10.9264 12.7569 11.2162 12.8784 11.2162 12.8784L11.4442 12.2405C11.4442 12.2405 11.2352 12.093 10.6176 12.093C9.75778 12.093 9.15922 12.5443 9.15922 13.1778C9.15922 13.538 9.4395 13.8114 9.81004 14.0067C10.1141 14.1585 10.2186 14.2714 10.2186 14.4363C10.2186 14.6055 10.0666 14.7444 9.78629 14.7444C9.37299 14.7444 8.9787 14.5491 8.9787 14.5491L8.73642 15.187C8.73642 15.187 9.09746 15.4083 9.70553 15.4083C10.5891 15.4083 11.2304 15.0091 11.2304 14.2931C11.2209 13.9025 10.9027 13.6335 10.5179 13.4295V13.4295ZM14.0428 12.0843C13.6057 12.0843 13.2637 12.2752 13.0024 12.5616L12.9929 12.5573L13.3729 10.7521H12.3896L11.43 15.3519H12.4133L12.7411 13.781C12.8694 13.1865 13.2067 12.8177 13.5202 12.8177C13.7435 12.8177 13.829 12.9565 13.829 13.1518C13.829 13.2733 13.8195 13.4295 13.7862 13.551L13.4157 15.3519H14.399L14.7838 13.4946C14.8266 13.2993 14.8551 13.065 14.8551 12.9045C14.8503 12.3881 14.5606 12.0843 14.0428 12.0843V12.0843ZM17.0783 12.0843C15.8907 12.0843 15.1069 13.0607 15.1069 14.1499C15.1069 14.8442 15.5772 15.4083 16.4608 15.4083C17.6246 15.4083 18.4085 14.458 18.4085 13.3427C18.4132 12.6962 18.0047 12.0843 17.0783 12.0843V12.0843ZM16.5938 14.7227C16.2565 14.7227 16.1187 14.4623 16.1187 14.1325C16.1187 13.6161 16.4085 12.7786 16.9453 12.7786C17.2921 12.7786 17.4109 13.0563 17.4109 13.321C17.4109 13.8721 17.1116 14.7227 16.5938 14.7227ZM20.931 12.0843C20.2659 12.0843 19.8907 12.6224 19.8907 12.6224H19.8811L19.9382 12.1407H19.0641C19.0213 12.4662 18.9405 12.9652 18.8645 13.3341L18.1852 16.6277H19.1686L19.4441 15.2955H19.4679C19.4679 15.2955 19.6721 15.4126 20.0427 15.4126C21.2018 15.4126 21.9571 14.3278 21.9571 13.2342C21.9524 12.6267 21.6531 12.0843 20.931 12.0843V12.0843ZM19.9904 14.7313C19.7339 14.7313 19.5819 14.5968 19.5819 14.5968L19.7434 13.7593C19.8574 13.1952 20.1804 12.8263 20.5225 12.8263C20.8265 12.8263 20.9168 13.0824 20.9168 13.321C20.9215 13.9025 20.5415 14.7313 19.9904 14.7313V14.7313ZM23.3585 10.7955C23.045 10.7955 22.7932 11.0255 22.7932 11.3162C22.7932 11.5809 22.9785 11.7675 23.2588 11.7675H23.2683C23.5771 11.7675 23.8383 11.5766 23.8431 11.2468C23.8478 10.9821 23.6531 10.7955 23.3585 10.7955V10.7955ZM21.9809 15.3475H22.9642L23.6293 12.1537H22.6412L21.9809 15.3475ZM26.1376 12.1494H25.4535L25.4868 12.0019C25.5438 11.6938 25.7433 11.4247 26.0758 11.4247C26.2516 11.4247 26.3894 11.4724 26.3894 11.4724L26.5794 10.7651C26.5794 10.7651 26.4131 10.687 26.0426 10.687C25.6958 10.687 25.3443 10.7781 25.0782 10.9864C24.7409 11.2468 24.5842 11.6243 24.5082 12.0062L24.4797 12.1537H24.0189L23.8716 12.835H24.3324L23.8098 15.3519H24.7932L25.3157 12.835H25.9951L26.1376 12.1494ZM28.5081 12.1537C28.5081 12.1537 27.8905 13.5727 27.6198 14.3495H27.6103C27.5912 14.0978 27.368 12.1537 27.368 12.1537H26.3324L26.9262 15.0785C26.9357 15.1436 26.9309 15.1826 26.9024 15.226C26.7884 15.43 26.5936 15.6253 26.3656 15.7685C26.1803 15.89 25.9713 15.9724 25.8051 16.0245L26.0806 16.7882C26.2801 16.7492 26.6981 16.5973 27.0449 16.2979C27.4915 15.916 27.9095 15.3215 28.3371 14.5144L29.539 12.1494H28.5081V12.1537Z" fill="black"/>
</svg>
