<svg width="31" height="31" viewBox="0 0 31 31" fill="none" xmlns="http://www.w3.org/2000/svg">
<path d="M24.5208 19.4122C24.1358 19.8138 23.959 20.3946 24.0467 20.9642L25.3679 28.8362C25.4794 29.5034 25.2178 30.1786 24.6991 30.5642C24.1908 30.9642 23.5146 31.0122 22.9602 30.6922L16.3778 26.9962C16.1489 26.865 15.8947 26.7946 15.6346 26.7866H15.2319C15.0922 26.809 14.9554 26.857 14.8306 26.9306L8.24664 30.6442C7.92116 30.8202 7.55257 30.8826 7.19142 30.8202C6.31158 30.641 5.72452 29.7386 5.86868 28.7866L7.19142 20.9146C7.27911 20.3402 7.10225 19.7562 6.71732 19.3482L1.35057 13.7482C0.901729 13.2794 0.745676 12.5754 0.950775 11.9402C1.14993 11.3066 1.65822 10.8442 2.27203 10.7402L9.65855 9.58658C10.2203 9.52418 10.7138 9.15618 10.9664 8.61218L14.2212 1.42818C14.2985 1.26818 14.3981 1.12098 14.5185 0.996183L14.6523 0.884183C14.7221 0.800983 14.8024 0.732183 14.8915 0.676183L15.0535 0.612183L15.3062 0.500183H15.9319C16.4907 0.562583 16.9826 0.922583 17.2398 1.46018L20.5377 8.61218C20.7755 9.13538 21.2377 9.49858 21.7713 9.58658L29.1578 10.7402C29.782 10.8362 30.3037 11.3002 30.5102 11.9402C30.7049 12.5818 30.537 13.2858 30.0792 13.7482L24.5208 19.4122Z" fill="#00F6FF"/>
</svg>
