<svg width="27" height="24" viewBox="0 0 27 24" fill="none" xmlns="http://www.w3.org/2000/svg">
<g clip-path="url(#clip0_31401_617)">
<path d="M10.1837 15.4606L11.4637 8.88342H13.4638L12.2237 15.4606H10.1837Z" fill="#3C58BF"/>
<path d="M10.1837 15.4606L11.8237 8.88342H13.4638L12.2237 15.4606H10.1837Z" fill="#293688"/>
<path d="M19.464 8.9565C19.064 8.81034 18.424 8.66418 17.6239 8.66418C15.6239 8.66418 14.1838 9.57768 14.1838 10.8931C14.1838 11.8797 15.1839 12.3912 15.9839 12.7201C16.7839 13.049 17.0239 13.2682 17.0239 13.5605C17.0239 13.999 16.3839 14.2182 15.8239 14.2182C15.0239 14.2182 14.5839 14.1086 13.9038 13.8528L13.6238 13.7432L13.3438 15.2413C13.8238 15.424 14.7039 15.6067 15.6239 15.6067C17.7439 15.6067 19.144 14.6932 19.144 13.3047C19.144 12.5374 18.624 11.9528 17.4239 11.4777C16.7039 11.1489 16.2639 10.9662 16.2639 10.6373C16.2639 10.345 16.6239 10.0527 17.4239 10.0527C18.104 10.0527 18.584 10.1623 18.944 10.3085L19.144 10.3816L19.464 8.9565Z" fill="#3C58BF"/>
<path d="M19.464 8.9565C19.064 8.81034 18.424 8.66418 17.6239 8.66418C15.6239 8.66418 14.5438 9.57768 14.5438 10.8931C14.5438 11.8797 15.1839 12.3912 15.9839 12.7201C16.7839 13.049 17.0239 13.2682 17.0239 13.5605C17.0239 13.999 16.3839 14.2182 15.8239 14.2182C15.0239 14.2182 14.5839 14.1086 13.9038 13.8528L13.6238 13.7432L13.3438 15.2413C13.8238 15.424 14.7039 15.6067 15.6239 15.6067C17.7439 15.6067 19.144 14.6932 19.144 13.3047C19.144 12.5374 18.624 11.9528 17.4239 11.4777C16.7039 11.1489 16.2639 10.9662 16.2639 10.6373C16.2639 10.345 16.6239 10.0527 17.4239 10.0527C18.104 10.0527 18.584 10.1623 18.944 10.3085L19.144 10.3816L19.464 8.9565Z" fill="#293688"/>
<path d="M22.904 8.88342C22.424 8.88342 22.064 8.91996 21.864 9.35844L18.8639 15.4606H21.024L21.424 14.3644H23.9841L24.2241 15.4606H26.1441L24.4641 8.88342H22.904ZM21.984 13.2682C22.104 12.9393 22.784 11.3316 22.784 11.3316C22.784 11.3316 22.944 10.9297 23.0641 10.6739L23.1841 11.295C23.1841 11.295 23.5841 12.9393 23.6641 13.3047H21.984V13.2682Z" fill="#3C58BF"/>
<path d="M23.3841 8.88342C22.904 8.88342 22.544 8.91996 22.344 9.35844L18.8639 15.4606H21.024L21.424 14.3644H23.9841L24.2241 15.4606H26.1441L24.4641 8.88342H23.3841ZM21.984 13.2682C22.144 12.9028 22.784 11.3316 22.784 11.3316C22.784 11.3316 22.944 10.9297 23.0641 10.6739L23.1841 11.295C23.1841 11.295 23.5841 12.9393 23.6641 13.3047H21.984V13.2682Z" fill="#293688"/>
<path d="M6.50359 13.4874L6.30358 12.5373C5.94357 11.4412 4.78353 10.2353 3.50349 9.65072L5.30355 15.4971H7.46362L10.7037 8.91992H8.54365L6.50359 13.4874Z" fill="#3C58BF"/>
<path d="M6.50359 13.4874L6.30358 12.5373C5.94357 11.4412 4.78353 10.2353 3.50349 9.65072L5.30355 15.4971H7.46362L10.7037 8.91992H8.94366L6.50359 13.4874Z" fill="#293688"/>
<path d="M0.94342 8.88342L1.30343 8.9565C3.86351 9.5046 5.62356 10.8931 6.30359 12.5374L5.58356 9.43152C5.46356 8.99304 5.10355 8.88342 4.66354 8.88342H0.94342Z" fill="#FFBC00"/>
<path d="M0.94342 8.88342C3.5035 9.43152 5.62356 10.8566 6.30359 12.5009L5.62356 9.90654C5.50356 9.46806 5.10355 9.21228 4.66354 9.21228L0.94342 8.88342Z" fill="#F7981D"/>
<path d="M0.94342 8.88342C3.5035 9.43152 5.62356 10.8566 6.30359 12.5009L5.82357 11.0758C5.70357 10.6373 5.54356 10.1989 4.98355 10.0162L0.94342 8.88342Z" fill="#ED7C00"/>
<path d="M8.50366 13.2682L7.14361 12.0259L6.50359 13.4144L6.34359 12.5009C5.98358 11.4047 4.82354 10.1989 3.5435 9.61426L5.34356 15.4606H7.50363L8.50366 13.2682Z" fill="#051244"/>
<path d="M12.2237 15.4605L10.5037 13.8528L10.1837 15.4605H12.2237Z" fill="#051244"/>
<path d="M16.8239 13.1951C16.9839 13.3412 17.0639 13.4508 17.0239 13.597C17.0239 14.0355 16.3839 14.2547 15.8239 14.2547C15.0239 14.2547 14.5839 14.1451 13.9038 13.8893L13.6238 13.7797L13.3438 15.2778C13.8238 15.4605 14.7039 15.6432 15.6239 15.6432C16.9039 15.6432 17.944 15.3144 18.544 14.7297L16.8239 13.1951Z" fill="#051244"/>
<path d="M19.144 15.4607H21.024L21.4241 14.3645H23.9841L24.2241 15.4607H26.1442L25.4642 12.7933L23.0641 10.674L23.1841 11.2586C23.1841 11.2586 23.5841 12.9029 23.6641 13.2683H21.9841C22.1441 12.9029 22.7841 11.3317 22.7841 11.3317C22.7841 11.3317 22.9441 10.9297 23.0641 10.674" fill="#051244"/>
</g>
<defs>
<clipPath id="clip0_31401_617">
<rect width="25.2008" height="23.02" fill="white" transform="translate(0.94342 0.643738)"/>
</clipPath>
</defs>
</svg>
